<svg xmlns="http://www.w3.org/2000/svg" xmlns:xlink="http://www.w3.org/1999/xlink" width="559" zoomAndPan="magnify" viewBox="0 0 419.25 297.75" height="397" preserveAspectRatio="xMidYMid meet" version="1.0"><defs><clipPath id="61bf8e163d"><path d="M 0 0.148438 L 418.5 0.148438 L 418.5 297.359375 L 0 297.359375 Z M 0 0.148438 " clip-rule="nonzero"/></clipPath><clipPath id="aa92437281"><path d="M -36.707031 837.882812 L -36.707031 0.148438 L 434.949219 0.148438 L 434.949219 477.476562 L 273.828125 477.476562 L 263.613281 451.492188 L 226.589844 431.660156 L 227.664062 411.289062 L 232.492188 405.929688 L 234.636719 381.808594 L 224.980469 363.582031 L 218.007812 334.636719 L 98.898438 367.335938 L 69.386719 420.9375 L 56.511719 447.203125 L 61.878906 455.246094 L 49.785156 477.476562 L -36.707031 477.476562 L -36.707031 837.882812 " clip-rule="nonzero"/></clipPath><clipPath id="237e033bc1"><path d="M -36.707031 837.882812 L -36.707031 0.152344 L 434.949219 0.152344 L 434.949219 477.476562 L 273.828125 477.476562 L 263.609375 451.492188 L 226.589844 431.660156 L 227.664062 411.289062 L 232.492188 405.929688 L 234.636719 381.808594 L 224.980469 363.585938 L 218.003906 334.636719 L 98.898438 367.335938 L 69.386719 420.941406 L 56.511719 447.203125 L 61.878906 455.246094 L 49.785156 477.476562 L -36.707031 477.476562 L -36.707031 837.882812 " clip-rule="nonzero"/></clipPath><clipPath id="bc82ba13f1"><path d="M -86.925781 834.867188 L 433.25 866.105469 L 485.167969 3.167969 L -35.007812 -28.070312 Z M -86.925781 834.867188 " clip-rule="nonzero"/></clipPath><linearGradient x1="0.625682" gradientTransform="matrix(13.21889, -219.705307, 219.905759, 13.206841, 197.520434, 447.184103)" y1="0" x2="2.087551" gradientUnits="userSpaceOnUse" y2="0" id="f91d16f104"><stop stop-opacity="1" stop-color="rgb(90.429688%, 73.75946%, 78.62854%)" offset="0"/><stop stop-opacity="1" stop-color="rgb(90.252686%, 73.468018%, 78.453064%)" offset="0.00390625"/><stop stop-opacity="1" stop-color="rgb(90.077209%, 73.178101%, 78.277588%)" offset="0.0078125"/><stop stop-opacity="1" stop-color="rgb(89.785767%, 72.886658%, 77.986145%)" offset="0.0117188"/><stop stop-opacity="1" stop-color="rgb(89.49585%, 72.596741%, 77.696228%)" offset="0.015625"/><stop stop-opacity="1" stop-color="rgb(89.204407%, 72.213745%, 77.435303%)" offset="0.0195312"/><stop stop-opacity="1" stop-color="rgb(88.91449%, 71.832275%, 77.174377%)" offset="0.0234375"/><stop stop-opacity="1" stop-color="rgb(88.690186%, 71.482849%, 76.96991%)" offset="0.0273438"/><stop stop-opacity="1" stop-color="rgb(88.465881%, 71.133423%, 76.765442%)" offset="0.03125"/><stop stop-opacity="1" stop-color="rgb(88.311768%, 70.829773%, 76.608276%)" offset="0.0351563"/><stop stop-opacity="1" stop-color="rgb(88.157654%, 70.527649%, 76.451111%)" offset="0.0390625"/><stop stop-opacity="1" stop-color="rgb(87.902832%, 70.091248%, 76.159668%)" offset="0.0429687"/><stop stop-opacity="1" stop-color="rgb(87.64801%, 69.654846%, 75.869751%)" offset="0.046875"/><stop stop-opacity="1" stop-color="rgb(87.30011%, 69.25354%, 75.509644%)" offset="0.0507813"/><stop stop-opacity="1" stop-color="rgb(86.952209%, 68.852234%, 75.151062%)" offset="0.0546875"/><stop stop-opacity="1" stop-color="rgb(86.727905%, 68.528748%, 74.926758%)" offset="0.0585938"/><stop stop-opacity="1" stop-color="rgb(86.503601%, 68.206787%, 74.702454%)" offset="0.0625"/><stop stop-opacity="1" stop-color="rgb(86.314392%, 67.883301%, 74.513245%)" offset="0.0664062"/><stop stop-opacity="1" stop-color="rgb(86.125183%, 67.559814%, 74.325562%)" offset="0.0703125"/><stop stop-opacity="1" stop-color="rgb(85.83374%, 67.160034%, 74.034119%)" offset="0.0742188"/><stop stop-opacity="1" stop-color="rgb(85.543823%, 66.760254%, 73.744202%)" offset="0.078125"/><stop stop-opacity="1" stop-color="rgb(85.25238%, 66.461182%, 73.452759%)" offset="0.0820313"/><stop stop-opacity="1" stop-color="rgb(84.962463%, 66.162109%, 73.162842%)" offset="0.0859375"/><stop stop-opacity="1" stop-color="rgb(84.671021%, 65.791321%, 72.891235%)" offset="0.0898437"/><stop stop-opacity="1" stop-color="rgb(84.381104%, 65.422058%, 72.621155%)" offset="0.09375"/><stop stop-opacity="1" stop-color="rgb(84.114075%, 65.010071%, 72.384644%)" offset="0.0976563"/><stop stop-opacity="1" stop-color="rgb(83.848572%, 64.599609%, 72.149658%)" offset="0.101563"/><stop stop-opacity="1" stop-color="rgb(83.703613%, 64.308167%, 72.003174%)" offset="0.105469"/><stop stop-opacity="1" stop-color="rgb(83.558655%, 64.01825%, 71.858215%)" offset="0.109375"/><stop stop-opacity="1" stop-color="rgb(83.297729%, 63.61084%, 71.59729%)" offset="0.113281"/><stop stop-opacity="1" stop-color="rgb(83.036804%, 63.204956%, 71.336365%)" offset="0.117187"/><stop stop-opacity="1" stop-color="rgb(82.76062%, 62.844849%, 71.044922%)" offset="0.121094"/><stop stop-opacity="1" stop-color="rgb(82.485962%, 62.484741%, 70.755005%)" offset="0.125"/><stop stop-opacity="1" stop-color="rgb(82.229614%, 62.22229%, 70.463562%)" offset="0.128906"/><stop stop-opacity="1" stop-color="rgb(81.973267%, 61.959839%, 70.173645%)" offset="0.132813"/><stop stop-opacity="1" stop-color="rgb(81.681824%, 61.523438%, 69.882202%)" offset="0.136719"/><stop stop-opacity="1" stop-color="rgb(81.391907%, 61.088562%, 69.592285%)" offset="0.140625"/><stop stop-opacity="1" stop-color="rgb(81.19812%, 60.749817%, 69.398499%)" offset="0.144531"/><stop stop-opacity="1" stop-color="rgb(81.004333%, 60.411072%, 69.204712%)" offset="0.148438"/><stop stop-opacity="1" stop-color="rgb(80.81665%, 60.076904%, 69.017029%)" offset="0.152344"/><stop stop-opacity="1" stop-color="rgb(80.628967%, 59.744263%, 68.829346%)" offset="0.15625"/><stop stop-opacity="1" stop-color="rgb(80.337524%, 59.307861%, 68.537903%)" offset="0.160156"/><stop stop-opacity="1" stop-color="rgb(80.047607%, 58.87146%, 68.247986%)" offset="0.164062"/><stop stop-opacity="1" stop-color="rgb(79.667664%, 58.302307%, 67.912292%)" offset="0.167969"/><stop stop-opacity="1" stop-color="rgb(79.28772%, 57.733154%, 67.576599%)" offset="0.171875"/><stop stop-opacity="1" stop-color="rgb(78.985596%, 57.440186%, 67.280579%)" offset="0.175781"/><stop stop-opacity="1" stop-color="rgb(78.684998%, 57.148743%, 66.984558%)" offset="0.179688"/><stop stop-opacity="1" stop-color="rgb(78.468323%, 56.800842%, 66.767883%)" offset="0.183594"/><stop stop-opacity="1" stop-color="rgb(78.251648%, 56.454468%, 66.551208%)" offset="0.1875"/><stop stop-opacity="1" stop-color="rgb(78.091431%, 56.037903%, 66.386414%)" offset="0.191406"/><stop stop-opacity="1" stop-color="rgb(77.931213%, 55.621338%, 66.221619%)" offset="0.195313"/><stop stop-opacity="1" stop-color="rgb(77.676392%, 55.329895%, 65.930176%)" offset="0.199219"/><stop stop-opacity="1" stop-color="rgb(77.42157%, 55.039978%, 65.640259%)" offset="0.203125"/><stop stop-opacity="1" stop-color="rgb(77.139282%, 54.638672%, 65.348816%)" offset="0.207031"/><stop stop-opacity="1" stop-color="rgb(76.858521%, 54.237366%, 65.058899%)" offset="0.210937"/><stop stop-opacity="1" stop-color="rgb(76.567078%, 53.800964%, 64.767456%)" offset="0.214844"/><stop stop-opacity="1" stop-color="rgb(76.277161%, 53.366089%, 64.476013%)" offset="0.21875"/><stop stop-opacity="1" stop-color="rgb(75.985718%, 52.931213%, 64.18457%)" offset="0.222656"/><stop stop-opacity="1" stop-color="rgb(75.695801%, 52.496338%, 63.894653%)" offset="0.226562"/><stop stop-opacity="1" stop-color="rgb(75.404358%, 52.241516%, 63.60321%)" offset="0.230469"/><stop stop-opacity="1" stop-color="rgb(75.114441%, 51.986694%, 63.313293%)" offset="0.234375"/><stop stop-opacity="1" stop-color="rgb(74.914551%, 51.617432%, 63.113403%)" offset="0.238281"/><stop stop-opacity="1" stop-color="rgb(74.716187%, 51.248169%, 62.915039%)" offset="0.242188"/><stop stop-opacity="1" stop-color="rgb(74.569702%, 50.886536%, 62.779236%)" offset="0.246094"/><stop stop-opacity="1" stop-color="rgb(74.424744%, 50.524902%, 62.643433%)" offset="0.25"/><stop stop-opacity="1" stop-color="rgb(74.279785%, 50.379944%, 62.533569%)" offset="0.257812"/><stop stop-opacity="1" stop-color="rgb(73.988342%, 50.088501%, 62.283325%)" offset="0.265625"/><stop stop-opacity="1" stop-color="rgb(73.771667%, 49.8703%, 62.071228%)" offset="0.28125"/><stop stop-opacity="1" stop-color="rgb(73.699951%, 49.798584%, 61.999512%)" offset="0.3125"/><stop stop-opacity="1" stop-color="rgb(73.699951%, 49.798584%, 61.999512%)" offset="0.375"/><stop stop-opacity="1" stop-color="rgb(73.699951%, 49.798584%, 61.999512%)" offset="0.5"/><stop stop-opacity="1" stop-color="rgb(73.699951%, 49.798584%, 61.999512%)" offset="1"/></linearGradient><clipPath id="50b1772356"><path d="M 258 0.140625 L 418.5 0.140625 L 418.5 297.359375 L 258 297.359375 Z M 258 0.140625 " clip-rule="nonzero"/></clipPath><clipPath id="02b90e8ea8"><path d="M 0 0.140625 L 418.5 0.140625 L 418.5 297.359375 L 0 297.359375 Z M 0 0.140625 " clip-rule="nonzero"/></clipPath><clipPath id="f9719afccc"><path d="M 92 211 L 418 211 L 418 297.359375 L 92 297.359375 Z M 92 211 " clip-rule="nonzero"/></clipPath><clipPath id="1e6f7372bd"><path d="M 215 233 L 413 233 L 413 297.359375 L 215 297.359375 Z M 215 233 " clip-rule="nonzero"/></clipPath><clipPath id="6aa6e12bd0"><path d="M 151 211 L 265 211 L 265 297.359375 L 151 297.359375 Z M 151 211 " clip-rule="nonzero"/></clipPath><clipPath id="3d57ceb145"><path d="M 101 249 L 213 249 L 213 297.359375 L 101 297.359375 Z M 101 249 " clip-rule="nonzero"/></clipPath><clipPath id="f2864d244b"><path d="M 0 0.140625 L 329 0.140625 L 329 297.359375 L 0 297.359375 Z M 0 0.140625 " clip-rule="nonzero"/></clipPath><clipPath id="29d5619c21"><path d="M 21 270 L 99 270 L 99 297.359375 L 21 297.359375 Z M 21 270 " clip-rule="nonzero"/></clipPath><clipPath id="1001efb9d9"><path d="M 32 285 L 102 285 L 102 297.359375 L 32 297.359375 Z M 32 285 " clip-rule="nonzero"/></clipPath><clipPath id="0411d34e2c"><path d="M 167 243 L 404 243 L 404 297.359375 L 167 297.359375 Z M 167 243 " clip-rule="nonzero"/></clipPath><clipPath id="e9f1b1299a"><path d="M 248 252 L 296 252 L 296 297.359375 L 248 297.359375 Z M 248 252 " clip-rule="nonzero"/></clipPath><clipPath id="6e94a71460"><path d="M 309 0.140625 L 418.5 0.140625 L 418.5 143 L 309 143 Z M 309 0.140625 " clip-rule="nonzero"/></clipPath><clipPath id="cd36150e12"><path d="M 157 0.140625 L 418.5 0.140625 L 418.5 135 L 157 135 Z M 157 0.140625 " clip-rule="nonzero"/></clipPath><clipPath id="edbf1412d9"><path d="M 278 0.140625 L 370 0.140625 L 370 47 L 278 47 Z M 278 0.140625 " clip-rule="nonzero"/></clipPath><clipPath id="6283f90d19"><path d="M 316 254 L 418.5 254 L 418.5 297.359375 L 316 297.359375 Z M 316 254 " clip-rule="nonzero"/></clipPath><clipPath id="e5854d9643"><path d="M 310 0.140625 L 418.5 0.140625 L 418.5 297.359375 L 310 297.359375 Z M 310 0.140625 " clip-rule="nonzero"/></clipPath><clipPath id="7e8404d63c"><path d="M 0 0.140625 L 125 0.140625 L 125 297.359375 L 0 297.359375 Z M 0 0.140625 " clip-rule="nonzero"/></clipPath><clipPath id="514d2d5c62"><path d="M 0 0.140625 L 126 0.140625 L 126 297.359375 L 0 297.359375 Z M 0 0.140625 " clip-rule="nonzero"/></clipPath><clipPath id="7f0a18d393"><path d="M 314.082031 0.140625 L 418.5 0.140625 L 418.5 104.953125 L 314.082031 104.953125 Z M 314.082031 0.140625 " clip-rule="nonzero"/></clipPath><clipPath id="85b9cb29da"><path d="M 406 0.140625 L 418.5 0.140625 L 418.5 89 L 406 89 Z M 406 0.140625 " clip-rule="nonzero"/></clipPath><clipPath id="c5da3b9daa"><path d="M 344 12 L 367 12 L 367 104.953125 L 344 104.953125 Z M 344 12 " clip-rule="nonzero"/></clipPath><clipPath id="6a599c68e9"><path d="M 209.390625 0.140625 L 314.203125 0.140625 L 314.203125 104.953125 L 209.390625 104.953125 Z M 209.390625 0.140625 " clip-rule="nonzero"/></clipPath><clipPath id="7303e724fe"><path d="M 301 0.140625 L 314.203125 0.140625 L 314.203125 89 L 301 89 Z M 301 0.140625 " clip-rule="nonzero"/></clipPath><clipPath id="94efebd33a"><path d="M 240 12 L 262 12 L 262 104.953125 L 240 104.953125 Z M 240 12 " clip-rule="nonzero"/></clipPath><clipPath id="d0a12dc392"><path d="M 104.695312 0.140625 L 209.507812 0.140625 L 209.507812 104.953125 L 104.695312 104.953125 Z M 104.695312 0.140625 " clip-rule="nonzero"/></clipPath><clipPath id="b60055be9b"><path d="M 196 0.140625 L 209.507812 0.140625 L 209.507812 89 L 196 89 Z M 196 0.140625 " clip-rule="nonzero"/></clipPath><clipPath id="47965b2ddf"><path d="M 135 12 L 158 12 L 158 104.953125 L 135 104.953125 Z M 135 12 " clip-rule="nonzero"/></clipPath><clipPath id="03bde6dc2b"><path d="M 0 0.140625 L 104.8125 0.140625 L 104.8125 104.953125 L 0 104.953125 Z M 0 0.140625 " clip-rule="nonzero"/></clipPath><clipPath id="c7f22b43ff"><path d="M 92 0.140625 L 104.8125 0.140625 L 104.8125 89 L 92 89 Z M 92 0.140625 " clip-rule="nonzero"/></clipPath><clipPath id="ba7908f398"><path d="M 30 12 L 53 12 L 53 104.953125 L 30 104.953125 Z M 30 12 " clip-rule="nonzero"/></clipPath></defs><g clip-path="url(#61bf8e163d)"><g clip-path="url(#aa92437281)"><g clip-path="url(#237e033bc1)"><g clip-path="url(#bc82ba13f1)"><path fill="url(#f91d16f104)" d="M -17.816406 296.289062 L 416.996094 322.402344 L 436.320312 1.222656 L 1.507812 -24.890625 Z M -17.816406 296.289062 " fill-rule="nonzero"/></g></g></g></g><path fill="#008095" d="M 221.761719 292.023438 C 221.480469 291.945312 221.214844 291.863281 220.96875 291.78125 C 221.246094 291.835938 221.507812 291.917969 221.761719 292.023438 " fill-opacity="1" fill-rule="nonzero"/><g clip-path="url(#50b1772356)"><path fill="#244663" d="M 434.949219 324.640625 L 434.949219 523.855469 L 410.867188 523.855469 L 408.125 520.433594 C 401.730469 526 332.019531 523.324219 323.097656 523.855469 C 323.097656 523.855469 323.101562 523.835938 323.101562 523.792969 L 323.109375 523.785156 C 323.800781 517.519531 325.617188 505.894531 325.796875 500.121094 C 325.109375 497.773438 323.269531 495.539062 323.167969 492.9375 C 323.132812 492.183594 322.855469 488.703125 323.476562 489.640625 C 324.3125 490.496094 325.152344 490.824219 326.527344 490.285156 C 330.070312 489.066406 328.007812 480.492188 329.269531 476.585938 C 330.28125 470.128906 333.828125 474.988281 340.242188 472.90625 C 344.179688 470.3125 346.746094 463 349.214844 457.652344 C 352.875 448.90625 356.1875 439.472656 358.996094 431.019531 C 360.289062 427.117188 361.191406 424.210938 361.496094 423.15625 C 362.042969 418.355469 356.40625 414.292969 352.820312 410.539062 C 350.5 408.359375 347.863281 406.019531 345.726562 403.839844 C 342.554688 400.675781 337.464844 385.675781 334.832031 378.523438 C 329.589844 364.839844 325.648438 350.214844 317.613281 338.207031 L 317.613281 338.203125 L 317.605469 338.199219 C 315.832031 336.027344 312.023438 333.730469 309.375 332.117188 C 286.425781 319.398438 282.207031 317.679688 258.886719 309.898438 L 258.886719 0.152344 L 417.765625 0.152344 C 422.015625 80.480469 430.773438 245.710938 434.949219 324.640625 " fill-opacity="1" fill-rule="nonzero"/></g><g clip-path="url(#02b90e8ea8)"><path fill="#1e405b" d="M 434.949219 0.152344 L 434.949219 314.796875 C 425.425781 311.597656 419.589844 309.875 414.355469 309.074219 C 410.085938 307.976562 406.140625 305.875 402.394531 303.589844 C 395.414062 299.390625 389.019531 293.84375 382.589844 288.980469 C 379.402344 288.089844 375.03125 290.03125 370.96875 291.097656 L 370.964844 291.097656 C 367.085938 292.335938 362.957031 293.785156 359.070312 295.195312 C 351.167969 298.019531 340.257812 302.285156 333.070312 304.527344 C 325.488281 308.355469 319.910156 298.421875 318.820312 296.519531 C 311.183594 299.53125 303.445312 302.777344 296.25 306.757812 C 295.546875 307.023438 294.785156 307.144531 294.039062 307.136719 L 294.035156 307.132812 L 294.023438 307.132812 L 294.015625 307.136719 L 294.011719 307.132812 L 293.949219 307.136719 L 293.925781 307.136719 L 293.914062 307.132812 L 293.910156 307.132812 L 293.90625 307.136719 L 293.894531 307.132812 L 293.855469 307.132812 L 293.777344 307.128906 L 293.769531 307.132812 L 293.769531 307.128906 L 293.746094 307.128906 L 293.742188 307.121094 C 293.707031 307.121094 293.675781 307.121094 293.636719 307.121094 L 293.597656 307.121094 L 293.582031 307.117188 L 293.582031 307.121094 L 293.578125 307.117188 L 293.546875 307.117188 L 293.511719 307.105469 L 293.503906 307.105469 L 293.5 307.109375 L 293.421875 307.101562 L 293.40625 307.101562 L 293.402344 307.09375 C 293.339844 307.089844 293.285156 307.085938 293.222656 307.074219 L 293.214844 307.074219 L 293.101562 307.066406 L 293.097656 307.058594 L 293.09375 307.066406 L 293.085938 307.058594 L 293.085938 307.054688 C 292.984375 307.039062 292.878906 307.023438 292.773438 307.007812 L 292.757812 307.007812 L 292.742188 307.003906 C 292.578125 306.972656 292.398438 306.9375 292.242188 306.890625 L 292.15625 306.867188 L 292.109375 306.855469 L 292.027344 306.835938 C 291.910156 306.804688 291.78125 306.765625 291.667969 306.726562 C 288.367188 305.6875 285.554688 303.308594 282.089844 302.730469 L 282.089844 302.726562 C 281.875 302.703125 281.648438 302.660156 281.441406 302.65625 L 281.433594 302.65625 C 281.375 302.648438 281.304688 302.644531 281.253906 302.644531 L 281.214844 302.644531 C 275.339844 302.417969 274.203125 310.75 268.410156 310.699219 C 263.8125 311.046875 259.011719 310.640625 254.429688 310.230469 L 254.363281 310.222656 C 254.417969 310.171875 253.890625 310.714844 253.453125 311.199219 L 253.441406 311.199219 C 249.570312 315.328125 243.058594 322.269531 240.25 325.628906 C 239.824219 326.25 239.085938 326.699219 238.386719 327.125 C 238.261719 327.195312 238.132812 327.261719 238.015625 327.347656 L 238.007812 327.347656 C 221.363281 336.132812 203.820312 343.273438 186.550781 350.742188 C 181.992188 352.652344 176.382812 354.992188 172.058594 356.675781 C 169.847656 357.6875 167.390625 358 165.511719 359.5625 C 160.691406 363.707031 157.621094 369.566406 154.339844 374.914062 C 152.613281 377.628906 151.460938 380.421875 149.265625 382.648438 C 145.070312 385.652344 140.152344 387.734375 135.355469 389.667969 C 133.859375 390.238281 132.3125 390.769531 130.78125 391.125 C 129.636719 391.234375 128.464844 391.816406 128.515625 393.105469 L 128.515625 393.121094 C 128.535156 396.132812 130.972656 398.804688 130.574219 401.839844 C 129.945312 403.445312 127.929688 403.914062 126.480469 404.566406 C 123.234375 405.78125 119.769531 406.671875 116.5 407.921875 C 114.261719 408.703125 113.324219 409.558594 111.359375 410.496094 C 108.113281 411.972656 103.378906 413.398438 99.472656 414.539062 C 97.625 415.0625 94.070312 416.03125 92.542969 416.40625 C 86.492188 419.625 59.617188 435.574219 57.578125 440.382812 C 53.644531 447.101562 50.800781 451.855469 41.800781 457.511719 C 40.886719 458.101562 40.089844 458.894531 39.503906 459.8125 C 38.949219 460.648438 38.5625 461.609375 38.28125 462.570312 C 37.710938 464.644531 37.632812 466.820312 37.757812 468.960938 C 38.210938 475.140625 40.105469 481.171875 42.441406 486.875 L 42.464844 486.917969 L 42.480469 486.957031 L 42.488281 486.960938 L 42.488281 486.96875 C 43.484375 487.664062 44.640625 488.476562 45.703125 489.199219 L 45.703125 489.203125 C 52.171875 493.621094 59.296875 498.5 66.238281 502.425781 C 67.9375 503.347656 69.519531 504.269531 71.289062 504.777344 C 72.152344 509.851562 74.503906 523.496094 75.402344 528.757812 L 57.574219 528.757812 L 44.542969 523.617188 L -20.597656 528.757812 L -36.085938 522.484375 L -36.707031 522.230469 L -36.707031 0.152344 L 434.949219 0.152344 " fill-opacity="1" fill-rule="nonzero"/></g><g clip-path="url(#f9719afccc)"><path fill="#00889c" d="M 416.875 309.535156 C 404.53125 308.164062 386.703125 291.726562 382.589844 288.980469 C 378.476562 286.242188 334.589844 305.425781 329.105469 305.425781 C 323.621094 305.425781 318.820312 296.519531 318.820312 296.519531 C 318.820312 296.519531 303.050781 302.683594 297.566406 306.109375 C 294.070312 308.292969 290.859375 306.582031 287.566406 304.875 C 285.6875 303.90625 283.785156 302.933594 281.792969 302.683594 C 276.308594 302 274.25 308.851562 270.824219 310.21875 C 267.394531 311.589844 254.367188 310.21875 254.367188 310.21875 C 254.367188 310.21875 242.710938 322.550781 239.964844 325.976562 C 237.226562 329.402344 174.828125 356.117188 167.96875 358.171875 C 166.8125 358.523438 165.59375 359.375 164.359375 360.570312 C 158.277344 366.445312 151.734375 380.496094 149.457031 382.492188 C 146.714844 384.890625 135.054688 390.371094 130.257812 391.226562 C 125.457031 392.082031 132.3125 399.960938 130.257812 402.46875 C 128.199219 404.980469 117.226562 406.8125 113.113281 409.554688 C 109 412.292969 92.542969 416.402344 92.542969 416.402344 C 92.542969 416.402344 100.773438 391.058594 101.457031 388.316406 C 102.144531 385.578125 120.65625 377.011719 123.398438 375.300781 C 126.144531 373.585938 133.683594 367.421875 130.941406 357.832031 C 128.199219 348.242188 130.941406 344.132812 132.3125 342.074219 C 133.683594 340.019531 134.714844 320.835938 136.429688 318.78125 C 138.140625 316.726562 142.253906 294.464844 147.054688 292.0625 C 148.25 291.46875 150.484375 290.59375 153.164062 289.554688 C 161.261719 286.40625 173.457031 281.710938 173.457031 278.363281 C 173.457031 273.910156 173.457031 258.5 176.542969 257.8125 C 179.625 257.125 209.453125 249.25 209.453125 249.25 C 209.453125 249.25 208.082031 225.613281 199.167969 218.078125 C 190.253906 210.542969 201.222656 210.882812 202.597656 211.226562 C 203.96875 211.570312 232.082031 225.273438 231.394531 228.351562 C 230.710938 231.4375 232.425781 231.777344 235.851562 231.777344 C 236.929688 231.777344 239.53125 232.425781 242.605469 233.394531 C 249.304688 235.53125 258.242188 239.257812 258.480469 241.371094 C 258.699219 243.339844 261.875 248.273438 264.9375 251.378906 C 266.65625 253.121094 268.34375 254.289062 269.453125 254.042969 C 272.417969 253.386719 290.578125 237.859375 299.292969 239.695312 C 299.648438 239.765625 299.984375 239.867188 300.308594 240 C 301.554688 240.523438 303.757812 241.738281 306.632812 243.433594 L 306.644531 243.4375 C 314.40625 248 327.078125 255.980469 339.117188 262.828125 C 352.027344 270.160156 364.210938 276.183594 368.875 275.28125 C 379.503906 273.222656 386.703125 265.347656 390.820312 273.910156 C 390.820312 273.910156 422.949219 310.207031 416.875 309.535156 " fill-opacity="1" fill-rule="nonzero"/></g><g clip-path="url(#1e6f7372bd)"><path fill="#40a1b6" d="M 411.261719 284.179688 C 406.46875 286.097656 364.28125 352.035156 357.488281 354.414062 C 354.683594 355.398438 340.023438 352.183594 322.792969 347.324219 C 321.242188 344.003906 319.59375 340.78125 317.613281 338.207031 L 317.613281 338.203125 L 317.605469 338.195312 C 314.113281 334.40625 308.402344 331.738281 303.773438 329.082031 C 280.058594 316.929688 284.734375 318.78125 261.425781 310.738281 C 259.167969 310.640625 257.054688 310.46875 255.742188 310.351562 C 252.503906 304.351562 248.195312 297.890625 248.195312 297.890625 C 248.40625 297.671875 261.199219 286.734375 261.90625 281.445312 C 262.675781 276.636719 266.039062 266.050781 260.535156 263.632812 C 260.054688 263.5 259.5 263.203125 258.890625 262.789062 C 253.371094 259.058594 243.121094 245.546875 240.652344 249.25 C 234.085938 273.367188 242.429688 274.769531 215.28125 272.285156 C 217.402344 264.695312 222.753906 237.523438 242.605469 233.402344 C 263.777344 240.5 254.121094 239.371094 264.9375 251.378906 C 266.660156 253.121094 268.34375 254.292969 269.449219 254.042969 C 272.675781 253.394531 291.398438 236.78125 300.308594 240 C 301.558594 240.523438 303.757812 241.738281 306.632812 243.433594 L 306.644531 243.4375 C 315.351562 248.585938 329.03125 257.136719 339.117188 262.828125 C 338.429688 265.734375 336.8125 268.839844 333.90625 272.285156 C 325.820312 288.25 424.023438 279.472656 411.261719 284.179688 " fill-opacity="1" fill-rule="nonzero"/></g><g clip-path="url(#6aa6e12bd0)"><path fill="#2e9ebd" d="M 264.9375 251.378906 C 259.8125 248.597656 251.21875 244.691406 244.082031 245.136719 C 233.109375 245.824219 224.882812 241.027344 225.910156 254.042969 C 226.9375 267.058594 220.769531 274.089844 215.28125 272.285156 C 209.796875 270.484375 196.769531 272.285156 196.769531 272.285156 L 191.28125 287.609375 L 172.082031 298.574219 C 172.082031 298.574219 173.457031 325.917969 172.082031 328.34375 C 170.710938 330.769531 167.96875 343.785156 167.96875 343.785156 C 167.96875 343.785156 146.714844 305.425781 152.199219 298.574219 C 153.671875 296.734375 153.675781 293.507812 153.164062 289.554688 C 161.261719 286.40625 173.457031 281.710938 173.457031 278.363281 C 173.457031 273.910156 173.457031 258.5 176.542969 257.8125 C 179.625 257.125 209.453125 249.25 209.453125 249.25 C 209.453125 249.25 208.082031 225.613281 199.167969 218.078125 C 190.253906 210.542969 201.222656 210.882812 202.597656 211.226562 C 203.96875 211.570312 232.082031 225.273438 231.394531 228.351562 C 230.710938 231.4375 232.425781 231.777344 235.851562 231.777344 C 239.28125 231.777344 258.136719 238.289062 258.480469 241.371094 C 258.699219 243.339844 261.875 248.273438 264.9375 251.378906 " fill-opacity="1" fill-rule="nonzero"/></g><g clip-path="url(#3d57ceb145)"><path fill="#41aec1" d="M 211.167969 258.152344 C 208.425781 256.785156 187.855469 265.003906 185.796875 265.6875 C 183.742188 266.375 191.28125 287.609375 191.28125 287.609375 C 191.28125 287.609375 170.027344 291.035156 163.171875 294.464844 C 156.3125 297.890625 171.398438 344.46875 167.96875 343.785156 C 164.542969 343.101562 147.398438 341.046875 141.230469 343.785156 C 135.054688 346.527344 141.914062 368.453125 141.230469 375.050781 C 140.542969 381.648438 101.457031 388.316406 101.457031 388.316406 C 102.144531 385.578125 120.65625 377.011719 123.398438 375.300781 C 126.144531 373.585938 133.683594 367.421875 130.941406 357.832031 C 128.199219 348.242188 130.941406 344.132812 132.3125 342.074219 C 133.683594 340.019531 134.714844 320.835938 136.429688 318.78125 C 138.140625 316.726562 142.253906 294.464844 147.054688 292.0625 C 151.855469 289.664062 173.457031 282.816406 173.457031 278.363281 C 173.457031 273.910156 173.457031 258.5 176.542969 257.8125 C 179.625 257.125 209.453125 249.25 209.453125 249.25 C 209.453125 249.25 213.910156 259.523438 211.167969 258.152344 " fill-opacity="1" fill-rule="nonzero"/></g><g clip-path="url(#f2864d244b)"><path fill="#284c6c" d="M 314.242188 77.4375 C 317.84375 85.03125 309.484375 88.210938 304.378906 91.710938 C 291.789062 99.585938 279.578125 108.074219 266.75 115.542969 C 259.15625 120.175781 246.316406 120.574219 242.289062 111.40625 C 233.996094 118.804688 231.65625 131.28125 222.832031 138.25 C 221.140625 139.519531 219.210938 140.453125 217.15625 140.96875 C 212.9375 142.03125 208.503906 141.160156 204.15625 141 C 196.285156 140.710938 188.351562 142.863281 181.703125 147.074219 C 168.082031 155.695312 161.761719 171.0625 155.367188 185.121094 C 153.191406 189.335938 140.378906 208.117188 137.539062 215.1875 C 137.019531 216.492188 136.832031 217.398438 137.117188 217.742188 C 138.367188 219.273438 140.070312 222.011719 141.945312 225.492188 C 149.3125 239.175781 159.3125 264.300781 154.941406 272.285156 C 152.050781 277.398438 142.71875 282.296875 136.570312 285.53125 C 126.347656 290.824219 115.632812 295.523438 114.484375 298.574219 C 112.425781 304.058594 95.972656 323.921875 87.058594 330.773438 C 77.660156 342.695312 88.703125 385.144531 87.058594 399.964844 C 85.015625 410.566406 65.503906 417.648438 57.335938 422.886719 C 55.371094 424.074219 53.964844 425.117188 53.457031 425.996094 C 50.839844 430.675781 43.136719 453.527344 41.808594 457.503906 C 40.890625 458.101562 40.089844 458.894531 39.503906 459.8125 C 38.949219 460.648438 38.566406 461.609375 38.28125 462.570312 C 36.433594 470.503906 39.554688 479.511719 42.441406 486.875 L 42.464844 486.917969 L 42.480469 486.957031 L 42.488281 486.960938 L 42.488281 486.96875 C 50.0625 492.214844 58.105469 497.792969 66.238281 502.425781 C 67.9375 503.347656 69.519531 504.269531 71.289062 504.777344 C 72.152344 509.851562 74.503906 523.496094 75.402344 528.757812 L 57.574219 528.757812 L 44.542969 523.617188 L -20.597656 528.757812 L -36.085938 522.484375 L -36.707031 522.230469 L -36.707031 0.152344 L 328.332031 0.152344 C 323.1875 8.984375 318.042969 17.816406 312.894531 26.648438 L 312.894531 26.65625 C 310.707031 30.503906 308.328125 34.25 306.316406 38.199219 C 299.042969 51.378906 309.082031 64.648438 314.242188 77.4375 " fill-opacity="1" fill-rule="nonzero"/></g><g clip-path="url(#29d5619c21)"><path fill="#41aec1" d="M 26.03125 318.78125 C 26.03125 318.78125 31.6875 338.648438 41.117188 328.714844 C 50.546875 318.78125 56.203125 315.015625 64.429688 318.78125 C 72.660156 322.550781 98.027344 311.800781 98.027344 304.5 C 98.027344 297.203125 47.972656 263.8125 36.316406 272.285156 C 24.660156 280.757812 15.0625 315.699219 26.03125 318.78125 " fill-opacity="1" fill-rule="nonzero"/></g><g clip-path="url(#1001efb9d9)"><path fill="#00889c" d="M 32.363281 294.464844 C 32.363281 294.464844 34.261719 312.960938 35.632812 318.78125 C 37.003906 324.605469 41.464844 325.292969 50.546875 318.78125 C 59.628906 312.273438 58.945312 311.101562 66.488281 313.746094 C 74.03125 316.386719 99.402344 312.183594 98.027344 304.5 C 96.65625 296.820312 101.457031 285.554688 101.457031 285.554688 C 101.457031 285.554688 51.261719 299.960938 44.546875 294.464844 C 37.832031 288.960938 32.363281 294.464844 32.363281 294.464844 " fill-opacity="1" fill-rule="nonzero"/></g><g clip-path="url(#0411d34e2c)"><path fill="#006c7d" d="M 363.496094 330.136719 C 363.496094 330.136719 380.617188 297.929688 372.972656 295.886719 C 361.273438 292.761719 333.425781 298.085938 329.105469 305.425781 C 323.621094 305.425781 318.820312 296.519531 318.820312 296.519531 C 318.820312 296.519531 303.050781 302.683594 297.566406 306.109375 C 292.082031 309.535156 287.28125 303.371094 281.796875 302.683594 C 276.3125 302 274.253906 308.851562 270.820312 310.21875 C 269.128906 310.894531 265.078125 310.90625 261.425781 310.738281 L 261.421875 310.738281 C 259.164062 310.640625 257.054688 310.46875 255.742188 310.351562 C 254.882812 310.277344 254.367188 310.21875 254.367188 310.21875 C 254.367188 310.21875 242.710938 322.550781 239.964844 325.976562 C 237.226562 329.402344 174.898438 356.085938 167.984375 358.167969 C 169.003906 357.617188 234.488281 322.519531 235.851562 318.78125 C 237.226562 315.015625 248.195312 297.890625 248.195312 297.890625 C 248.195312 297.890625 254.03125 299.683594 258.890625 301.125 C 261.664062 301.941406 264.121094 302.644531 264.996094 302.835938 C 267.390625 303.371094 280.425781 289.664062 280.425781 289.664062 C 280.425781 289.664062 289.898438 291.726562 295.445312 289.664062 C 300.996094 287.609375 314.019531 268.429688 314.707031 263.632812 C 315.246094 259.851562 313.230469 249.261719 306.644531 243.4375 C 311.257812 246.148438 317.597656 250.066406 324.507812 254.226562 C 325.597656 254.890625 326.699219 255.554688 327.8125 256.214844 C 331.535156 258.4375 390.257812 280.246094 393.835938 282.679688 C 428.6875 306.394531 358.828125 331.042969 363.496094 330.136719 " fill-opacity="1" fill-rule="nonzero"/></g><g clip-path="url(#e9f1b1299a)"><path fill="#41aec1" d="M 277.199219 281.445312 C 271.921875 281.445312 270.136719 290.351562 268.421875 294.464844 C 266.707031 298.574219 248.195312 297.890625 248.195312 297.890625 C 248.195312 297.890625 260.539062 287.609375 261.90625 281.445312 C 262.816406 277.351562 264.03125 271.453125 263.34375 267.542969 C 264.160156 266.792969 264.652344 266.375 264.652344 266.375 L 291.394531 252.675781 C 291.394531 252.675781 294.820312 269.800781 295.445312 277.4375 C 296.070312 285.070312 282.480469 281.445312 277.199219 281.445312 " fill-opacity="1" fill-rule="nonzero"/></g><g clip-path="url(#6e94a71460)"><path fill="#1c3c54" d="M 357.441406 74.441406 C 356.53125 81.539062 356.742188 85.363281 362.957031 88.15625 C 374.710938 91.691406 371.257812 96.007812 373.769531 103.433594 C 375.820312 106.992188 404.28125 132.148438 416.402344 142.820312 C 389.691406 125.925781 367.558594 118.496094 337.316406 110.722656 C 327.074219 106.683594 318.195312 99.023438 309.691406 92.378906 C 309.023438 85.765625 311.550781 80.542969 316.054688 75.125 C 341.03125 54.1875 370.613281 23.945312 392.367188 0.152344 L 433.496094 0.152344 C 432.738281 1.863281 358.9375 64.128906 357.441406 74.441406 " fill-opacity="1" fill-rule="nonzero"/></g><g clip-path="url(#cd36150e12)"><path fill="#22415c" d="M 402.4375 134.636719 C 378.367188 122.402344 366.367188 118.097656 340.085938 111.613281 C 338.0625 111.082031 336.15625 110.3125 334.261719 109.410156 C 327.664062 106.234375 321.664062 101.789062 315.917969 97.3125 C 313.511719 95.449219 310.835938 93.160156 308.628906 91.609375 C 295.636719 91.238281 261.191406 108.34375 255.144531 108.050781 C 249.660156 108.050781 244.859375 99.140625 244.859375 99.140625 C 238.964844 101.484375 232.925781 103.96875 227.210938 106.769531 C 224.804688 107.777344 222.789062 109.832031 220.082031 109.761719 L 220.050781 109.761719 L 219.933594 109.753906 L 219.894531 109.753906 L 219.820312 109.75 L 219.800781 109.75 L 219.785156 109.746094 L 219.675781 109.742188 L 219.675781 109.746094 L 219.664062 109.742188 L 219.652344 109.742188 L 219.628906 109.734375 L 219.609375 109.734375 L 219.554688 109.730469 L 219.546875 109.730469 C 207.574219 104.183594 194.828125 97.847656 183.769531 91.089844 C 168.976562 82.054688 169.175781 80.207031 164.300781 62.976562 C 161.589844 52.6875 159.179688 40.871094 157.433594 30.976562 C 157.433594 30.976562 170.121094 16.9375 173.550781 23.789062 C 176.976562 30.636719 185.207031 32.003906 186.578125 30.976562 C 187.949219 29.949219 200.25 42.316406 200.25 42.316406 C 224.03125 28.273438 225.777344 29.605469 243.738281 0.152344 L 312.25 0.152344 C 298.527344 7.972656 281.480469 17.945312 279.34375 20.363281 C 275.75 25.90625 283.394531 45.867188 283.257812 46.066406 C 283.257812 46.066406 324.398438 33.378906 329.886719 26.527344 C 334.992188 20.15625 360.878906 5.472656 369.417969 0.152344 L 419.28125 0.152344 C 390.785156 27.898438 329.636719 69.621094 332.960938 74.910156 C 337.429688 82.019531 343.828125 76.539062 345.769531 83.390625 C 346.214844 84.964844 347.324219 86.574219 348.769531 88.15625 C 361.222656 99.523438 390.253906 125.570312 402.4375 134.636719 " fill-opacity="1" fill-rule="nonzero"/></g><g clip-path="url(#edbf1412d9)"><path fill="#006c7d" d="M 369.417969 0.152344 C 360.878906 5.472656 334.992188 20.15625 329.886719 26.527344 C 324.398438 33.378906 283.257812 46.066406 283.257812 46.066406 C 283.257812 46.066406 276.714844 27.332031 278.753906 21.445312 C 279.105469 20.792969 279.320312 20.414062 279.34375 20.363281 L 279.347656 20.359375 C 279.347656 20.359375 292.171875 32.003906 294.914062 31.320312 C 297.65625 30.636719 312.058594 26.554688 316.859375 25.855469 C 321.085938 25.242188 359.867188 4.984375 369.074219 0.152344 L 369.417969 0.152344 " fill-opacity="1" fill-rule="nonzero"/></g><g clip-path="url(#6283f90d19)"><path fill="#183449" d="M 316.011719 292.988281 C 316.011719 292.988281 379.324219 287.511719 378.640625 293.675781 C 377.953125 299.839844 377.261719 317.382812 363.550781 327.109375 C 349.839844 336.835938 359.453125 356.703125 378.644531 334.097656 C 397.839844 311.484375 410.867188 276.726562 415.667969 267.390625 C 420.46875 258.046875 425.953125 250.511719 411.554688 257.367188 C 397.152344 264.21875 316.011719 292.988281 316.011719 292.988281 " fill-opacity="1" fill-rule="nonzero"/></g><g clip-path="url(#e5854d9643)"><path fill="#18344c" d="M 434.949219 192.628906 L 434.949219 386.304688 C 426.203125 393.0625 392.328125 384.609375 389.609375 393.191406 C 389.339844 396.074219 388.757812 401.675781 387.8125 407.527344 C 386.742188 413.183594 385.054688 425.265625 380.695312 427.414062 C 369.945312 435.335938 354.085938 456.527344 344.496094 467.652344 C 350.058594 457.269531 354.8125 443.316406 358.5625 432.339844 C 359.65625 429.003906 361.277344 424.027344 361.496094 423.152344 C 361.910156 421.699219 361.191406 419.925781 359.808594 417.988281 C 357.460938 414.671875 352.96875 410.6875 349.5625 407.527344 C 342.292969 402.417969 338.855469 388.992188 334.832031 378.523438 C 330.933594 367.734375 327.242188 356.910156 322.535156 346.773438 C 319.378906 340.109375 317.53125 336.851562 310.996094 333.109375 L 311.011719 332.402344 C 312.0625 331.945312 358.039062 328.171875 369.585938 322.449219 C 376.875 317.375 396.214844 286.257812 404.695312 272.542969 C 400.683594 273.863281 385.355469 278.691406 378.453125 280.632812 C 359.820312 286.296875 329.382812 289.09375 316.039062 292.984375 L 316.023438 292.988281 L 316.023438 292.984375 C 335.445312 282.71875 402.457031 245.859375 409.496094 234.792969 C 419.09375 221.0625 397.152344 208.042969 400.582031 197.769531 C 401.125 196.144531 431.085938 207.046875 433.496094 0.152344 L 434.949219 192.628906 " fill-opacity="1" fill-rule="nonzero"/></g><g clip-path="url(#7e8404d63c)"><path fill="#183449" d="M 124.769531 239.699219 C 124.769531 239.699219 107.535156 268.03125 102.707031 280.761719 C 101.925781 282.820312 101.464844 284.476562 101.457031 285.53125 L 101.457031 285.558594 C 101.457031 288.121094 100.425781 290.949219 98.851562 293.621094 C 97.65625 295.644531 96.152344 297.589844 94.539062 299.265625 C 92.023438 301.886719 89.265625 303.859375 87.058594 304.507812 C 81.574219 306.113281 56.582031 308.375 55.019531 304.507812 C 53.882812 301.679688 40.4375 296.394531 33.25 293.75 C 30.582031 292.761719 28.773438 292.140625 28.773438 292.140625 L 26.03125 318.785156 C 26.03125 318.785156 21.917969 343.789062 17.117188 343.789062 C 12.320312 343.789062 0.664062 339.925781 1.347656 349.394531 C 1.480469 351.179688 1.484375 353.011719 1.410156 354.804688 C 1.34375 356.445312 1.210938 358.054688 1.039062 359.574219 C 0.410156 365.207031 -0.707031 369.589844 -0.707031 369.589844 C -0.707031 369.589844 -11.03125 366.957031 -17.054688 359.574219 C -18.203125 358.160156 -19.199219 356.582031 -19.929688 354.804688 C -20.78125 352.757812 -21.28125 350.46875 -21.28125 347.898438 C -21.28125 331.457031 -32.9375 316.386719 -4.824219 286.929688 C -4.371094 286.457031 -3.925781 285.988281 -3.492188 285.53125 C -1.894531 283.867188 -0.375 282.277344 1.070312 280.761719 C 24.070312 256.730469 29.363281 251.328125 45.230469 225.960938 C 51.75 215.535156 11.777344 194.839844 7.820312 185.914062 C 2.746094 174.472656 -2.371094 158.753906 -11.792969 149.988281 C -15.832031 146.230469 -21.304688 144.53125 -26.179688 141.945312 C -30.09375 139.863281 -33.617188 137.1875 -36.707031 134.066406 L -36.707031 37.289062 C -33.578125 32.238281 -29.882812 27.585938 -25.425781 23.648438 C -13.964844 13.519531 1.316406 9.078125 14.6875 1.640625 C 15.554688 1.15625 16.414062 0.660156 17.269531 0.152344 L 99.660156 0.152344 C 98.804688 0.367188 97.960938 0.582031 97.105469 0.804688 C 95.792969 1.140625 94.398438 1.519531 93.492188 2.519531 C 92.351562 3.78125 92.277344 5.636719 92.25 7.332031 C 91.921875 25.480469 89.246094 43.585938 84.296875 61.050781 C 76.382812 57.003906 66.09375 53.171875 59.328125 58.929688 C 57.039062 60.882812 55.628906 63.640625 53.816406 66.035156 C 45.058594 77.613281 28.117188 79.605469 17.632812 89.636719 C 15.941406 91.253906 14.351562 93.28125 14.34375 95.621094 C 14.332031 98.726562 17.003906 101.089844 19.460938 102.988281 C 39.636719 118.636719 60.417969 133.515625 81.738281 147.578125 C 79.769531 150.234375 77.085938 152.363281 74.050781 153.671875 C 75.402344 165.261719 74.683594 177.003906 81.886719 186.214844 C 87.863281 193.859375 94.429688 201.109375 100.683594 208.535156 C 108.511719 217.832031 116.335938 227.132812 124.160156 236.421875 L 124.769531 239.699219 " fill-opacity="1" fill-rule="nonzero"/></g><g clip-path="url(#514d2d5c62)"><path fill="#1c3c54" d="M 124.769531 239.699219 L 124.765625 239.703125 C 119.890625 242.722656 98.277344 273.8125 93.488281 280.761719 C 92.878906 281.640625 92.542969 282.132812 92.542969 282.132812 C 92.542969 282.132812 89.515625 283.664062 85.136719 285.53125 C 83.519531 286.21875 81.722656 286.960938 79.816406 287.679688 C 70.734375 291.117188 59.375 294.210938 55.019531 290.351562 C 47.285156 283.5 28.773438 292.140625 28.773438 292.140625 C 28.773438 292.140625 30.832031 316.386719 26.03125 318.785156 C 21.230469 321.183594 -8.9375 336.253906 -9.621094 338.992188 C -9.992188 340.476562 -7.355469 347.636719 -4.851562 354.804688 C -4.292969 356.414062 -3.734375 358.027344 -3.226562 359.574219 C -1.804688 363.863281 -0.707031 367.660156 -0.707031 369.589844 C -0.707031 373.589844 -5.421875 386.394531 -9.652344 393.40625 C -11.464844 396.40625 -13.191406 398.347656 -14.421875 398.09375 C -16.34375 397.683594 -23.351562 397.660156 -30.273438 397.28125 C -31.734375 397.195312 -33.1875 397.101562 -34.59375 396.988281 C -35.3125 396.929688 -36.019531 396.863281 -36.707031 396.78125 L -36.707031 235.203125 C -36.707031 224.589844 -36.492188 213.953125 -36.707031 203.335938 L -36.707031 0.152344 L 56.316406 0.152344 C 49.6875 6.863281 57.667969 21.484375 50.609375 28.53125 C 48.160156 30.976562 44.539062 31.714844 41.171875 32.515625 C 21.257812 37.257812 2.949219 48.484375 -10.3125 64.066406 C -11.28125 65.207031 -12.246094 66.410156 -12.664062 67.847656 C -13.269531 69.902344 -12.660156 72.105469 -12.058594 74.164062 C -9.277344 83.652344 -6.488281 93.144531 -3.710938 102.632812 C -1.785156 109.183594 0.203125 115.882812 4.230469 121.390625 C 9.46875 128.558594 17.574219 132.964844 25.40625 137.148438 C 37.652344 143.679688 49.902344 150.21875 62.148438 156.753906 C 57.710938 162.082031 54.496094 168.414062 52.820312 175.136719 C 68.578125 183.828125 86.480469 195.621094 101.414062 209.402344 C 110.46875 217.761719 118.4375 226.851562 124.160156 236.421875 C 125.179688 238.121094 125.453125 239.265625 124.769531 239.699219 " fill-opacity="1" fill-rule="nonzero"/></g><path fill="#2a5276" d="M 379.34375 224.363281 L 385.425781 211.082031 L 356.585938 192.625 C 342.765625 145.191406 295.464844 148.8125 295.464844 148.8125 L 264.9375 156.617188 L 255.089844 136.808594 L 202.167969 160.21875 C 187.152344 153.019531 137.117188 217.738281 137.117188 217.738281 L 136.078125 216.316406 C 139.007812 209.011719 154.039062 188.097656 155.550781 184.75 C 161.847656 170.796875 168.21875 155.613281 181.707031 147.066406 C 188.351562 142.855469 196.289062 140.707031 204.15625 140.996094 C 208.503906 141.152344 212.9375 142.027344 217.15625 140.964844 C 226.492188 138.613281 230.324219 128.769531 235.492188 120.15625 C 237.445312 116.90625 239.585938 113.828125 242.292969 111.398438 C 244.597656 116.988281 251.492188 119.503906 257.488281 118.695312 C 263.484375 117.894531 268.792969 114.546875 273.878906 111.28125 C 284.046875 104.757812 294.214844 98.234375 304.378906 91.707031 C 306.515625 91.273438 308.019531 91.191406 308.632812 91.605469 C 308.921875 91.792969 309.277344 92.054688 309.695312 92.371094 C 310.582031 93.042969 311.734375 93.972656 313.101562 95.0625 C 313.246094 95.183594 313.390625 95.296875 313.539062 95.417969 C 314.132812 95.890625 314.757812 96.386719 315.417969 96.914062 C 315.585938 97.039062 315.753906 97.175781 315.921875 97.308594 C 315.96875 97.34375 316.019531 97.386719 316.070312 97.421875 C 316.292969 97.597656 316.515625 97.769531 316.746094 97.949219 C 317.65625 98.664062 318.613281 99.402344 319.609375 100.144531 C 319.683594 100.195312 319.753906 100.25 319.832031 100.308594 C 320.292969 100.652344 320.761719 101 321.238281 101.34375 C 321.40625 101.472656 321.582031 101.601562 321.753906 101.71875 C 322.699219 102.40625 323.667969 103.085938 324.65625 103.757812 C 324.910156 103.933594 325.171875 104.105469 325.429688 104.277344 C 326.097656 104.730469 326.769531 105.167969 327.457031 105.59375 C 327.757812 105.792969 328.066406 105.984375 328.378906 106.171875 L 328.4375 106.203125 C 328.496094 106.246094 328.558594 106.28125 328.613281 106.316406 C 328.878906 106.480469 329.152344 106.648438 329.421875 106.804688 C 330.183594 107.257812 330.949219 107.695312 331.714844 108.109375 C 331.761719 108.132812 331.800781 108.15625 331.84375 108.179688 C 331.953125 108.238281 332.066406 108.296875 332.175781 108.351562 L 332.28125 108.40625 C 332.375 108.464844 332.464844 108.507812 332.558594 108.558594 C 332.683594 108.625 332.808594 108.6875 332.933594 108.75 C 333.324219 108.953125 333.722656 109.144531 334.113281 109.332031 C 334.164062 109.359375 334.21875 109.386719 334.261719 109.40625 C 334.96875 109.742188 335.664062 110.058594 336.359375 110.335938 C 336.453125 110.378906 336.542969 110.414062 336.640625 110.449219 C 336.863281 110.542969 337.089844 110.628906 337.316406 110.710938 C 337.441406 110.761719 337.570312 110.808594 337.699219 110.859375 C 337.824219 110.90625 337.953125 110.949219 338.082031 110.992188 L 361.992188 156.019531 L 379.023438 160.21875 L 398.644531 211.082031 L 379.023438 225.050781 L 379.308594 224.433594 L 379.34375 224.363281 " fill-opacity="1" fill-rule="nonzero"/><path fill="#006c7d" d="M 385.425781 211.085938 L 379.339844 224.363281 L 379.308594 224.433594 C 379.199219 224.640625 379.105469 224.84375 379.023438 225.054688 C 378.578125 220.039062 378.953125 212.179688 375.042969 209 C 373.296875 207.574219 371.113281 206.832031 368.996094 206.058594 C 351.613281 199.722656 335.609375 190.140625 320.144531 179.992188 C 318.613281 190.984375 308.800781 200.253906 297.734375 201.160156 C 300.535156 194.742188 294.496094 187.457031 287.746094 185.550781 C 281.003906 183.644531 273.824219 185.144531 266.820312 185.0625 C 265.558594 185.046875 264.171875 184.925781 263.273438 184.035156 C 262.582031 183.347656 262.34375 182.335938 262.113281 181.382812 C 259.164062 169.140625 253.28125 157.609375 245.089844 148.035156 C 235.828125 152.65625 232.523438 164.964844 223.359375 169.78125 C 215.746094 173.78125 205.886719 171.605469 198.523438 176.046875 C 196.351562 173.695312 194.902344 170.683594 194.421875 167.515625 C 187.777344 167.867188 182.441406 172.90625 177.894531 177.761719 C 171.441406 184.652344 165.253906 191.796875 159.351562 199.171875 C 153.851562 206.054688 155.90625 198.773438 137.117188 217.738281 C 137.117188 217.738281 187.152344 153.019531 202.167969 160.222656 L 255.089844 136.8125 L 264.9375 156.621094 L 295.464844 148.816406 C 295.464844 148.816406 342.765625 145.195312 356.582031 192.628906 L 385.425781 211.085938 " fill-opacity="1" fill-rule="nonzero"/><g clip-path="url(#7f0a18d393)"><path fill="#2fcde8" d="M 314.082031 0.140625 L 314.082031 16.386719 L 319.5 29.019531 L 315.886719 45.261719 L 321.304688 56.09375 L 319.5 75.945312 L 324.914062 90.386719 L 330.328125 74.140625 L 328.523438 59.703125 L 330.328125 45.261719 L 328.523438 34.433594 L 332.132812 18.191406 L 337.546875 19.996094 L 341.15625 32.628906 L 339.351562 50.679688 L 342.960938 65.117188 L 341.15625 81.359375 L 344.765625 90.386719 L 348.375 104.824219 L 351.988281 92.191406 L 350.179688 79.554688 L 353.792969 63.3125 L 350.179688 47.066406 L 351.988281 32.628906 L 355.597656 18.191406 L 366.425781 12.773438 L 371.839844 23.605469 L 370.035156 36.238281 L 375.449219 47.066406 L 373.644531 68.726562 L 379.058594 83.167969 L 384.476562 70.53125 L 382.667969 57.898438 L 386.28125 43.457031 L 382.667969 29.019531 L 388.085938 18.191406 L 395.304688 16.386719 L 402.523438 27.214844 L 398.914062 38.042969 L 402.523438 59.703125 L 400.71875 72.335938 L 406.132812 88.582031 L 411.546875 70.53125 L 409.742188 54.289062 L 413.351562 39.847656 L 411.546875 19.996094 L 418.769531 12.773438 L 418.769531 0.140625 L 314.082031 0.140625 " fill-opacity="1" fill-rule="nonzero"/></g><g clip-path="url(#85b9cb29da)"><path fill="#75e6ff" d="M 418.769531 0.140625 L 415.15625 9.164062 L 406.132812 12.773438 L 409.742188 36.238281 L 406.132812 59.703125 L 407.9375 72.335938 L 406.132812 88.582031 L 411.546875 70.53125 L 409.742188 54.289062 L 413.351562 39.847656 L 411.546875 19.996094 L 418.769531 12.773438 L 418.769531 0.140625 " fill-opacity="1" fill-rule="nonzero"/></g><path fill="#75e6ff" d="M 395.304688 16.386719 L 386.28125 18.191406 L 379.058594 25.410156 L 382.667969 41.652344 L 380.863281 57.898438 L 382.667969 66.921875 L 379.058594 83.167969 L 384.476562 70.53125 L 382.667969 57.898438 L 386.28125 43.457031 L 382.667969 29.019531 L 388.085938 18.191406 L 395.304688 16.386719 " fill-opacity="1" fill-rule="nonzero"/><g clip-path="url(#c5da3b9daa)"><path fill="#75e6ff" d="M 366.425781 12.773438 L 351.988281 16.386719 L 346.570312 21.800781 L 348.375 30.824219 L 346.570312 52.484375 L 348.375 70.53125 L 344.765625 77.75 L 350.179688 90.386719 L 348.375 104.824219 L 351.988281 92.191406 L 350.179688 79.554688 L 353.792969 63.3125 L 350.179688 47.066406 L 351.988281 32.628906 L 355.597656 18.191406 L 366.425781 12.773438 " fill-opacity="1" fill-rule="nonzero"/></g><path fill="#75e6ff" d="M 332.132812 18.191406 L 324.914062 27.214844 L 326.71875 43.457031 L 324.914062 56.09375 L 326.71875 65.117188 L 324.914062 77.75 L 324.914062 90.386719 L 330.328125 74.140625 L 328.523438 59.703125 L 330.328125 45.261719 L 328.523438 34.433594 L 332.132812 18.191406 " fill-opacity="1" fill-rule="nonzero"/><g clip-path="url(#6a599c68e9)"><path fill="#2fcde8" d="M 209.390625 0.140625 L 209.390625 16.386719 L 214.804688 29.019531 L 211.195312 45.261719 L 216.609375 56.09375 L 214.804688 75.945312 L 220.21875 90.386719 L 225.632812 74.140625 L 223.828125 59.703125 L 225.632812 45.261719 L 223.828125 34.433594 L 227.4375 18.191406 L 232.851562 19.996094 L 236.460938 32.628906 L 234.65625 50.679688 L 238.265625 65.117188 L 236.460938 81.359375 L 240.074219 90.386719 L 243.683594 104.824219 L 247.292969 92.191406 L 245.488281 79.554688 L 249.097656 63.3125 L 245.488281 47.066406 L 247.292969 32.628906 L 250.902344 18.191406 L 261.730469 12.773438 L 267.144531 23.605469 L 265.339844 36.238281 L 270.753906 47.066406 L 268.949219 68.726562 L 274.367188 83.167969 L 279.78125 70.53125 L 277.976562 57.898438 L 281.585938 43.457031 L 277.976562 29.019531 L 283.390625 18.191406 L 290.609375 16.386719 L 297.828125 27.214844 L 294.21875 38.042969 L 297.828125 59.703125 L 296.023438 72.335938 L 301.4375 88.582031 L 306.851562 70.53125 L 305.046875 54.289062 L 308.660156 39.847656 L 306.851562 19.996094 L 314.074219 12.773438 L 314.074219 0.140625 L 209.390625 0.140625 " fill-opacity="1" fill-rule="nonzero"/></g><g clip-path="url(#7303e724fe)"><path fill="#75e6ff" d="M 314.074219 0.140625 L 310.464844 9.164062 L 301.4375 12.773438 L 305.046875 36.238281 L 301.4375 59.703125 L 303.242188 72.335938 L 301.4375 88.582031 L 306.851562 70.53125 L 305.046875 54.289062 L 308.660156 39.847656 L 306.851562 19.996094 L 314.074219 12.773438 L 314.074219 0.140625 " fill-opacity="1" fill-rule="nonzero"/></g><path fill="#75e6ff" d="M 290.609375 16.386719 L 281.585938 18.191406 L 274.367188 25.410156 L 277.976562 41.652344 L 276.171875 57.898438 L 277.976562 66.921875 L 274.367188 83.167969 L 279.78125 70.53125 L 277.976562 57.898438 L 281.585938 43.457031 L 277.976562 29.019531 L 283.390625 18.191406 L 290.609375 16.386719 " fill-opacity="1" fill-rule="nonzero"/><g clip-path="url(#94efebd33a)"><path fill="#75e6ff" d="M 261.730469 12.773438 L 247.292969 16.386719 L 241.878906 21.800781 L 243.683594 30.824219 L 241.878906 52.484375 L 243.683594 70.53125 L 240.074219 77.75 L 245.488281 90.386719 L 243.683594 104.824219 L 247.292969 92.191406 L 245.488281 79.554688 L 249.097656 63.3125 L 245.488281 47.066406 L 247.292969 32.628906 L 250.902344 18.191406 L 261.730469 12.773438 " fill-opacity="1" fill-rule="nonzero"/></g><path fill="#75e6ff" d="M 227.4375 18.191406 L 220.21875 27.214844 L 222.023438 43.457031 L 220.21875 56.09375 L 222.023438 65.117188 L 220.21875 77.75 L 220.21875 90.386719 L 225.632812 74.140625 L 223.828125 59.703125 L 225.632812 45.261719 L 223.828125 34.433594 L 227.4375 18.191406 " fill-opacity="1" fill-rule="nonzero"/><g clip-path="url(#d0a12dc392)"><path fill="#2fcde8" d="M 104.695312 0.140625 L 104.695312 16.386719 L 110.109375 29.019531 L 106.5 45.261719 L 111.914062 56.09375 L 110.109375 75.945312 L 115.523438 90.386719 L 120.9375 74.140625 L 119.132812 59.703125 L 120.9375 45.261719 L 119.132812 34.433594 L 122.742188 18.191406 L 128.15625 19.996094 L 131.769531 32.628906 L 129.964844 50.679688 L 133.574219 65.117188 L 131.769531 81.359375 L 135.378906 90.386719 L 138.988281 104.824219 L 142.597656 92.191406 L 140.792969 79.554688 L 144.402344 63.3125 L 140.792969 47.066406 L 142.597656 32.628906 L 146.207031 18.191406 L 157.035156 12.773438 L 162.453125 23.605469 L 160.644531 36.238281 L 166.0625 47.066406 L 164.257812 68.726562 L 169.671875 83.167969 L 175.085938 70.53125 L 173.28125 57.898438 L 176.890625 43.457031 L 173.28125 29.019531 L 178.695312 18.191406 L 185.914062 16.386719 L 193.132812 27.214844 L 189.523438 38.042969 L 193.132812 59.703125 L 191.328125 72.335938 L 196.746094 88.582031 L 202.160156 70.53125 L 200.355469 54.289062 L 203.964844 39.847656 L 202.160156 19.996094 L 209.378906 12.773438 L 209.378906 0.140625 L 104.695312 0.140625 " fill-opacity="1" fill-rule="nonzero"/></g><g clip-path="url(#b60055be9b)"><path fill="#75e6ff" d="M 209.378906 0.140625 L 205.769531 9.164062 L 196.746094 12.773438 L 200.355469 36.238281 L 196.746094 59.703125 L 198.550781 72.335938 L 196.746094 88.582031 L 202.160156 70.53125 L 200.355469 54.289062 L 203.964844 39.847656 L 202.160156 19.996094 L 209.378906 12.773438 L 209.378906 0.140625 " fill-opacity="1" fill-rule="nonzero"/></g><path fill="#75e6ff" d="M 185.914062 16.386719 L 176.890625 18.191406 L 169.671875 25.410156 L 173.28125 41.652344 L 171.476562 57.898438 L 173.28125 66.921875 L 169.671875 83.167969 L 175.085938 70.53125 L 173.28125 57.898438 L 176.890625 43.457031 L 173.28125 29.019531 L 178.695312 18.191406 L 185.914062 16.386719 " fill-opacity="1" fill-rule="nonzero"/><g clip-path="url(#47965b2ddf)"><path fill="#75e6ff" d="M 157.035156 12.773438 L 142.597656 16.386719 L 137.183594 21.800781 L 138.988281 30.824219 L 137.183594 52.484375 L 138.988281 70.53125 L 135.378906 77.75 L 140.792969 90.386719 L 138.988281 104.824219 L 142.597656 92.191406 L 140.792969 79.554688 L 144.402344 63.3125 L 140.792969 47.066406 L 142.597656 32.628906 L 146.207031 18.191406 L 157.035156 12.773438 " fill-opacity="1" fill-rule="nonzero"/></g><path fill="#75e6ff" d="M 122.742188 18.191406 L 115.523438 27.214844 L 117.328125 43.457031 L 115.523438 56.09375 L 117.328125 65.117188 L 115.523438 77.75 L 115.523438 90.386719 L 120.9375 74.140625 L 119.132812 59.703125 L 120.9375 45.261719 L 119.132812 34.433594 L 122.742188 18.191406 " fill-opacity="1" fill-rule="nonzero"/><g clip-path="url(#03bde6dc2b)"><path fill="#2fcde8" d="M 0 0.140625 L 0 16.386719 L 5.414062 29.019531 L 1.804688 45.261719 L 7.21875 56.09375 L 5.414062 75.945312 L 10.828125 90.386719 L 16.242188 74.140625 L 14.4375 59.703125 L 16.242188 45.261719 L 14.4375 34.433594 L 18.050781 18.191406 L 23.464844 19.996094 L 27.074219 32.628906 L 25.269531 50.679688 L 28.878906 65.117188 L 27.074219 81.359375 L 30.683594 90.386719 L 34.292969 104.824219 L 37.902344 92.191406 L 36.097656 79.554688 L 39.707031 63.3125 L 36.097656 47.066406 L 37.902344 32.628906 L 41.511719 18.191406 L 52.34375 12.773438 L 57.757812 23.605469 L 55.953125 36.238281 L 61.367188 47.066406 L 59.5625 68.726562 L 64.976562 83.167969 L 70.390625 70.53125 L 68.585938 57.898438 L 72.195312 43.457031 L 68.585938 29.019531 L 74 18.191406 L 81.21875 16.386719 L 88.441406 27.214844 L 84.828125 38.042969 L 88.441406 59.703125 L 86.636719 72.335938 L 92.050781 88.582031 L 97.464844 70.53125 L 95.660156 54.289062 L 99.269531 39.847656 L 97.464844 19.996094 L 104.683594 12.773438 L 104.683594 0.140625 L 0 0.140625 " fill-opacity="1" fill-rule="nonzero"/></g><g clip-path="url(#c7f22b43ff)"><path fill="#75e6ff" d="M 104.683594 0.140625 L 101.074219 9.164062 L 92.050781 12.773438 L 95.660156 36.238281 L 92.050781 59.703125 L 93.855469 72.335938 L 92.050781 88.582031 L 97.464844 70.53125 L 95.660156 54.289062 L 99.269531 39.847656 L 97.464844 19.996094 L 104.683594 12.773438 L 104.683594 0.140625 " fill-opacity="1" fill-rule="nonzero"/></g><path fill="#75e6ff" d="M 81.21875 16.386719 L 72.195312 18.191406 L 64.976562 25.410156 L 68.585938 41.652344 L 66.78125 57.898438 L 68.585938 66.921875 L 64.976562 83.167969 L 70.390625 70.53125 L 68.585938 57.898438 L 72.195312 43.457031 L 68.585938 29.019531 L 74 18.191406 L 81.21875 16.386719 " fill-opacity="1" fill-rule="nonzero"/><g clip-path="url(#ba7908f398)"><path fill="#75e6ff" d="M 52.34375 12.773438 L 37.902344 16.386719 L 32.488281 21.800781 L 34.292969 30.824219 L 32.488281 52.484375 L 34.292969 70.53125 L 30.683594 77.75 L 36.097656 90.386719 L 34.292969 104.824219 L 37.902344 92.191406 L 36.097656 79.554688 L 39.707031 63.3125 L 36.097656 47.066406 L 37.902344 32.628906 L 41.511719 18.191406 L 52.34375 12.773438 " fill-opacity="1" fill-rule="nonzero"/></g><path fill="#75e6ff" d="M 18.050781 18.191406 L 10.828125 27.214844 L 12.632812 43.457031 L 10.828125 56.09375 L 12.632812 65.117188 L 10.828125 77.75 L 10.828125 90.386719 L 16.242188 74.140625 L 14.4375 59.703125 L 16.242188 45.261719 L 14.4375 34.433594 L 18.050781 18.191406 " fill-opacity="1" fill-rule="nonzero"/></svg>