<?xml version="1.0" encoding="UTF-8"?>
<svg id="Capa_1" xmlns="http://www.w3.org/2000/svg" xmlns:xlink="http://www.w3.org/1999/xlink" viewBox="0 0 3 4">
  <defs>
    <style>
      .cls-1 {
        fill: #fff;
        opacity: .05;
      }

      .cls-2 {
        fill: url(#Degradado_sin_nombre_37);
        opacity: .1;
      }

      .cls-3 {
        fill: none;
        stroke: #1d1d1b;
        stroke-miterlimit: 10;
        stroke-width: .02px;
      }

      .cls-4 {
        fill: #e83c4b;
      }
    </style>
    <linearGradient id="Degradado_sin_nombre_37" data-name="Degradado sin nombre 37" x1=".86" y1="1.22" x2="1.24" y2=".56" gradientUnits="userSpaceOnUse">
      <stop offset="0" stop-color="#fff"/>
      <stop offset=".43" stop-color="#f4aaaa"/>
      <stop offset="1" stop-color="#e73635"/>
    </linearGradient>
  </defs>
  <path class="cls-4" d="M1.39,2.09l-.08.11s.14.03.18.02l-.04-.12s.82-.35.89-1.03-.32-.89-.35-.91c-.03-.02-.46-.33-.96-.01s-.39.9-.38.96.05.42.37.71.37.26.37.26Z"/>
  <path class="cls-3" d="M1.41,2.23s-.15.26.21.67.2.57-.02.79l-.32.32"/>
  <path class="cls-1" d="M2.11.66c-.06.03,0,.12-.06.27-.04.09-.04.22.03.22s.15-.13.15-.21,0-.35-.12-.28Z"/>
  <path class="cls-2" d="M1.01.49c-.1.12-.17.45-.13.61.04.17.14.22.18.22s.08-.08.06-.26.03-.39,0-.51c-.02-.14-.09-.09-.11-.06Z"/>
</svg>