<?xml version="1.0" encoding="UTF-8"?>
<svg id="Capa_1" xmlns="http://www.w3.org/2000/svg" xmlns:xlink="http://www.w3.org/1999/xlink" viewBox="0 0 559 397">
  <defs>
    <style>
      .cls-1 {
        fill: #f9b169;
      }

      .cls-2 {
        fill: #dc6d00;
      }

      .cls-3 {
        fill: #28484f;
      }

      .cls-4 {
        fill: none;
      }

      .cls-5 {
        clip-path: url(#clippath-1);
      }

      .cls-6 {
        fill: #f2f2f2;
      }

      .cls-7 {
        fill: #6cb6e5;
      }

      .cls-8 {
        fill: #305560;
      }

      .cls-9 {
        fill: #1a1a1a;
      }

      .cls-10 {
        fill: #f7931e;
      }

      .cls-11 {
        clip-path: url(#clippath-2);
      }

      .cls-12 {
        fill: #f03c46;
      }

      .cls-13 {
        clip-path: url(#clippath);
      }
    </style>
    <clipPath id="clippath">
      <polygon class="cls-4" points="106.8 240.29 152.26 281.64 132.37 312.31 79.71 278.15 106.8 240.29"/>
    </clipPath>
    <clipPath id="clippath-1">
      <rect class="cls-4" y="202.34" width="558" height="194.14"/>
    </clipPath>
    <clipPath id="clippath-2">
      <polygon class="cls-4" points="474.55 284.04 416.49 304.19 422.71 340.2 484.56 329.51 474.55 284.04"/>
    </clipPath>
  </defs>
  <path class="cls-3" d="M426.32,353.36c-1.26.2-3.8-1.93-2.78,4.59.6,3.81,2.03,12.22,8.98,19.82,4.24,4.63,5.11-2.28,8.32-.9l4.76-9.91c-5.16-1.58-8.41-4.07-10.22-5.74-2.43-2.24-3.94-4.54-5.41-6.83-3.98-6.17-2.83-1.26-3.65-1.01Z"/>
  <path class="cls-8" d="M74.3,299.39c5.32,4.15,9.93,8.88,15.25,13.03,9.71,7.57,19.75,14.19,32.64,15.15l9.05-18.38c.12-.19.24-.37.36-.56,8.3-13.41,4.59-30.73-7.87-39.31-12.44-8.57-29.88-5.87-39.44,6.62-.78,1.02-1.49,2.08-2.13,3.18l-12.66,15.24c-.15,2.21,3.7,4.01,4.81,5.02Z"/>
  <path class="cls-6" d="M116.74,320.43c.2-.74.75-4.65,1.35-4.96.56-.29,2.98-1.57,5.55-3.83,3.1-2.73,6.41-6.88,6.93-12.44.04-.37.28-3.41-.46-6.56-.6-2.54-1.84-5.14-4.36-6.48-3.42-1.81-7.35-.3-8.76.24-1.75.68-3.31,1.66-4.67,2.95-2.9,2.73-4.15,6.02-4.46,6.88l-3.39-2.2c.66-.63,3.16-3.12,4.46-6.88.62-1.77.89-3.59.79-5.47-.08-1.5-.3-5.71-3.35-8.09-2.25-1.75-5.13-1.83-7.69-1.34-3.18.61-5.86,2.07-6.18,2.25-4.86,2.75-7.31,7.46-8.53,11.4-.38,1.22-.67,2.45-.89,3.71-.17.99-.5,1.91-1.01,2.78-.5.86-1.14,1.61-1.91,2.25l-5.82,4.77c5.31,4.15,9.91,8.86,15.22,13.01,7.86,6.13,15.93,11.63,25.56,14.02l.17-.63,1.46-5.37Z"/>
  <path class="cls-10" d="M112.49,300.02l-.24-.03-3.97-.41c-.38.05-.76.07-1.14.05s-.76-.07-1.13-.15c-.37-.08-.73-.2-1.09-.35s-.69-.33-1.01-.53-.62-.44-.9-.7c-.28-.26-.53-.54-.76-.85-.23-.3-.43-.63-.6-.97-.17-.34-.31-.69-.42-1.06l-2-3.45-.12-.21,13.37,8.67Z"/>
  <path class="cls-2" d="M112.49,300.02l-.24-.03c-.69-.2-1.76-.51-3.08-.84-3.73-.93-3.91-.67-4.81-1.23-1.01-.63-.94-1.05-3.68-4.56-.6-.77-1.11-1.39-1.45-1.81l-.12-.21c1.73.94,3.58,1.51,5.54,1.72.94.1,1.88.11,2.83.03.31.89.7,1.75,1.18,2.57.99,1.7,2.27,3.15,3.83,4.36Z"/>
  <g class="cls-13">
    <path class="cls-12" d="M131.9,309.42c-1.11.45-2.21.59-3.22.37l-2.55-1.65c-.54-.71-.91-1.59-1.13-2.59-.56-2.62,0-6.05,1.72-9.23,2.27-4.18,5.85-6.64,8.77-6.31,1.2-6.35-.74-13.14-4.96-18.31-1.66-2.03-3.6-3.76-5.81-5.19-7.94-5.15-18.4-5.45-25.85-.25,1.5,2.52.72,6.8-2.18,10.58-2.2,2.87-5.1,4.78-7.72,5.33-1,.21-1.96.23-2.82.03l-2.55-1.65c-.61-.83-.93-1.9-.97-3.09-.09-2.35.91-5.22,2.92-7.84,3.2-4.18,7.9-6.32,11.05-5.21,1.69-1.16,3.5-2.08,5.42-2.78,2.68-.97,5.45-1.49,8.3-1.54,5.53-.12,10.99,1.48,15.65,4.51,2.41,1.56,4.53,3.44,6.36,5.64,2.62,3.16,4.52,6.88,5.48,10.87.81,3.36.93,6.84.31,10.23,2.3,2.42,2.26,7.58-.25,12.22-1.58,2.91-3.79,4.98-5.97,5.86Z"/>
  </g>
  <path class="cls-10" d="M112.49,300.02c-2.52-.93-4.91-2.13-7.17-3.59s-4.32-3.16-6.2-5.08c1.73.94,3.58,1.51,5.54,1.72.94.1,1.88.11,2.83.03.31.89.7,1.75,1.18,2.57.99,1.7,2.27,3.15,3.83,4.36Z"/>
  <path class="cls-9" d="M121.28,299.48c-.09-.22-.19-.43-.32-.64-.12-.21-.26-.4-.41-.58-.15-.18-.32-.35-.49-.51-.18-.16-.37-.3-.57-.43s-.41-.24-.63-.34c-.22-.1-.44-.18-.67-.24-.23-.06-.46-.11-.7-.13-.24-.03-.47-.04-.71-.03-.12,0-.23-.03-.32-.11s-.15-.18-.17-.3h0c0-.08,0-.14.02-.21.02-.06.05-.12.09-.17s.1-.09.16-.12c.06-.03.12-.05.19-.05.29-.01.57,0,.86.03s.57.09.84.16.55.17.81.29c.26.12.51.25.75.41s.47.33.68.52c.21.19.41.4.59.62s.35.46.49.7.27.5.38.77c.02.06.04.13.03.2,0,.07-.02.13-.05.19s-.07.11-.12.16c-.05.04-.11.07-.17.09h0c-.12.04-.23.03-.34-.03s-.19-.14-.23-.25Z"/>
  <path class="cls-9" d="M100.15,285.78c-.09-.22-.19-.43-.32-.64-.12-.21-.26-.4-.41-.58-.15-.18-.32-.35-.49-.51-.18-.16-.37-.3-.57-.43s-.41-.24-.63-.34c-.22-.1-.44-.18-.67-.24-.23-.06-.46-.11-.7-.13-.24-.03-.47-.04-.71-.03-.12,0-.23-.03-.33-.11s-.15-.18-.16-.3h0c0-.08,0-.14.02-.21.02-.06.05-.12.09-.17s.1-.09.16-.12c.06-.03.12-.05.19-.05.29-.01.57,0,.86.03.29.03.57.09.84.16s.55.17.81.29c.26.12.51.25.75.41s.47.33.68.52c.21.19.41.4.6.62s.35.46.49.7.27.5.38.77c.02.06.04.13.03.2,0,.07-.02.13-.05.19-.03.06-.07.11-.12.16-.05.04-.11.07-.17.09h0c-.12.04-.23.03-.34-.03s-.19-.14-.23-.25Z"/>
  <path class="cls-3" d="M127.83,319.05c1.08.68,4.25-.28.75,5.31-2.05,3.27-6.67,10.44-16.05,14.69-5.72,2.59-3.8-4.11-7.3-4.1l-.47-10.99c5.37.57,9.34-.43,11.66-1.26,3.11-1.1,5.41-2.63,7.67-4.15,6.09-4.11,3.1-.05,3.75.5Z"/>
  <g>
    <path class="cls-1" d="M125.93,329s-.89,1.61-2.7,1.18c-.47-.11-.93-.23-1.4-.34-.57-.14-1.13-.29-1.7-.45-.21-.06-.41-.11-.62-.17-.26-.07-.51-.14-.77-.22-1.19-.34-2.37-.71-3.54-1.09-.43-.14-.86-.28-1.28-.43-1.09-.37-2.17-.77-3.25-1.18-.4-.15-.79-.31-1.19-.46-1.02-.4-2.02-.82-3.02-1.26-.37-.16-.73-.32-1.1-.48-.89-.4-1.77-.81-2.65-1.24l-.15-.08c-.34-.17-.68-.33-1.02-.5-.88-.44-1.75-.9-2.62-1.37-.32-.17-.64-.35-.96-.52-.83-.46-1.66-.94-2.48-1.42-.31-.18-.61-.36-.91-.55-.8-.49-1.6-.99-2.39-1.49-.3-.19-.59-.39-.89-.58-.78-.52-1.56-1.05-2.33-1.59-.29-.21-.58-.41-.87-.62-.78-.56-1.55-1.13-2.31-1.71-.29-.22-.58-.45-.87-.67-.78-.61-1.55-1.23-2.31-1.87-.29-.24-.59-.49-.87-.74-.79-.67-1.57-1.36-2.34-2.06-.3-.27-.6-.54-.89-.82-.8-.75-1.6-1.51-2.38-2.29-.3-.3-.61-.61-.91-.91-.81-.83-1.61-1.67-2.39-2.52-.31-.33-.61-.67-.91-1.01-.83-.93-1.64-1.87-2.43-2.83-.31-.37-.61-.74-.91-1.12-.46-.57-.91-1.15-1.36-1.73-1.11-1.45-.02-2.95-.02-2.95.62-1.71,2.12-1.75,4.34-2.96.57-.31,1.12-.67,1.63-1.06,2.42-1.82,2.97-3.44,4.68-3.85.18-.04.37-.07.55-.09.44-.04.88-.03,1.31.02.63.08,1.14.27,1.34.53.15.19.29.39.44.58.22.29.44.57.67.86.61.78,1.24,1.54,1.88,2.29.25.29.5.59.76.87.69.79,1.39,1.55,2.11,2.31.27.29.55.58.83.86.75.77,1.51,1.52,2.29,2.25.3.28.6.56.89.83.8.73,1.62,1.45,2.44,2.15.31.26.63.53.95.79.84.69,1.7,1.36,2.57,2.02.33.25.66.49.99.74.88.64,1.78,1.27,2.69,1.87.34.23.69.45,1.03.68.92.59,1.85,1.17,2.79,1.72.35.21.71.42,1.07.62.95.54,1.91,1.06,2.88,1.56.37.19.73.37,1.1.56.17.08.33.16.5.24.81.39,1.62.77,2.44,1.14.37.17.75.33,1.12.49.98.42,1.98.82,2.98,1.2.37.14.75.28,1.13.42.98.36,1.97.69,2.97,1.01.37.12.74.23,1.11.35.95.29,1.91.56,2.88.82.35.09.71.18,1.06.27.16.04.32.08.48.12.32.08.64.15.96.23.01,0,.02,0,.04.01.27.08.57.35.85.74.12.17.22.34.32.53.15.3.28.6.38.92.67,2.14-1.12,3.15-1.85,6.36-.07.29-.12.56-.15.83-.45,3.09.76,4.79-.7,6.3Z"/>
    <path class="cls-10" d="M69.49,296.71c-.31-.37-.61-.75-.91-1.12.48-2.75,1.46-5.3,2.95-7.65.57-.31,1.11-.67,1.63-1.06,2.42-1.82,2.97-3.43,4.68-3.85-2.01,1.39-3.82,3.32-5.23,5.52-1.61,2.51-2.69,5.37-3.13,8.16Z"/>
    <path class="cls-10" d="M72.83,300.56c-.31-.34-.61-.67-.91-1.01.38-2.7,1.37-5.57,2.86-8.16,1.71-3,4.09-5.65,6.71-7.31.22.29.44.57.67.86-2.54,1.77-4.86,4.48-6.53,7.49-1.46,2.62-2.43,5.47-2.79,8.13Z"/>
    <path class="cls-10" d="M76.13,304c-.3-.3-.6-.61-.91-.91.77-5.43,4.33-12.09,8.81-15.86.25.29.5.59.76.87-4.38,3.92-7.88,10.58-8.66,15.9Z"/>
    <path class="cls-10" d="M79.4,307.1c-.3-.27-.6-.54-.89-.82.85-5,4.25-11.6,8.39-15.87.28.29.55.58.83.86-4.06,4.38-7.44,10.95-8.33,15.83Z"/>
    <path class="cls-10" d="M82.62,309.89c-.29-.24-.59-.49-.88-.74,1.05-4.55,4.41-11.01,8.28-15.63.3.28.59.56.89.83-3.81,4.7-7.18,11.11-8.3,15.54Z"/>
    <path class="cls-10" d="M85.8,312.43c-.29-.22-.58-.45-.87-.67,1.33-4.13,4.76-10.4,8.43-15.26.31.27.63.53.95.79-3.62,4.91-7.08,11.13-8.51,15.14Z"/>
    <path class="cls-10" d="M88.97,314.76c-.29-.21-.58-.41-.87-.62,1.7-3.74,5.27-9.81,8.78-14.83.33.25.66.49.99.73-3.46,5.06-7.09,11.08-8.9,14.72Z"/>
    <path class="cls-10" d="M92.19,316.93c-.3-.19-.59-.39-.89-.58,2.12-3.4,5.9-9.3,9.26-14.44.34.23.69.45,1.03.68-3.32,5.17-7.16,11.02-9.41,14.34Z"/>
    <path class="cls-10" d="M95.49,318.98c-.31-.18-.61-.36-.92-.55,2.58-3.13,6.6-8.88,9.81-14.11.35.21.71.42,1.07.62-3.16,5.26-7.25,10.98-9.97,14.04Z"/>
    <path class="cls-10" d="M98.93,320.92c-.32-.17-.64-.35-.96-.52,3.08-2.92,7.34-8.59,10.36-13.91.37.19.73.37,1.1.56-2.96,5.34-7.29,11.01-10.5,13.88Z"/>
    <path class="cls-10" d="M102.57,322.79c-.34-.17-.68-.33-1.02-.5,3.58-2.79,8.07-8.46,10.83-13.86.37.17.75.33,1.12.49-2.67,5.43-7.21,11.11-10.93,13.88Z"/>
    <path class="cls-10" d="M106.46,324.59c-.37-.16-.73-.32-1.1-.48,4.08-2.75,8.72-8.48,11.11-13.98.37.14.75.28,1.13.42-2.26,5.53-6.93,11.29-11.14,14.05Z"/>
    <path class="cls-10" d="M110.67,326.31c-.4-.15-.79-.31-1.19-.46,4.54-2.81,9.22-8.68,11.09-14.3.37.12.74.23,1.11.35-1.69,5.65-6.36,11.57-11.01,14.41Z"/>
    <path class="cls-10" d="M121.56,322.05c-1.79,2.41-4.03,4.46-6.36,5.87-.43-.14-.86-.28-1.28-.43,2.29-1.38,4.52-3.4,6.35-5.79,2.1-2.72,3.66-5.93,4.29-8.98.35.09.71.18,1.06.27-.51,3.07-1.99,6.31-4.06,9.06Z"/>
    <path class="cls-10" d="M126.33,323.18c-1.61,2.51-3.8,4.67-6.2,6.21-.2-.06-.41-.11-.62-.17-.26-.07-.51-.14-.77-.22,2.39-1.5,4.6-3.63,6.27-6.11,1.74-2.55,2.9-5.47,3.23-8.29.15.3.28.6.38.92.68,2.14-1.12,3.15-1.85,6.36-.07.29-.12.56-.15.83-.09.16-.19.31-.29.47Z"/>
  </g>
  <path class="cls-8" d="M75.14,266.24c-.51-1.33,4.09-4.62,2.74-4.15-2.97,1.06-7.38,3.95-10.41,8.47-2.15,3.2-6.51,11.73-6.56,22.02-.03,6.28,1.66,11.31,3.08,14.51l13.86-13.57c-2.71-4.66-3.41-8.7-3.61-11.15-.26-3.29.2-6.01.67-8.69,1.04-5.94,1.12-5.09.22-7.44Z"/>
  <path class="cls-8" d="M70.08,284.68s14.92-21.37,10.4-22.71-16.45,8.23-16.9,19.28c0,0,2.28,7.98,6.5,3.44Z"/>
  <g class="cls-5">
    <path class="cls-7" d="M628.3,202.34c-21.11,4.55-38.62,18.71-47.97,37.55-50.11,1.07-90.47,41.96-90.47,92.33,0,6.68.67,13.1,2.01,19.38-5.88-1.6-12.16-2.41-18.57-2.41-29.4,0-54.52,17.77-65.48,43.03-1.73-2.41-3.6-4.68-5.88-6.55.8-4.28,1.34-8.82,1.34-13.36,0-38.08-30.87-68.95-68.95-68.95-32.87,0-60.27,22.98-67.21,53.71-3.21-.67-6.55-.93-10.02-.93-10.16,0-19.78,2.94-27.8,8.02-6.55-13.36-20.31-22.71-36.34-22.71-21.24,0-38.62,16.3-40.22,37.15-4.81-3.47-10.16-6.01-16.03-7.61v-1.6c0-44.5-36.08-80.44-80.44-80.44-2.01,0-4.15.13-6.15.27-18.97-31.8-51.71-54.12-89.93-58.93v318.03h668.13v-153.54,17.64-210.06Z"/>
  </g>
  <path class="cls-8" d="M125.83,316.63s-22.42,13.3-18.85,16.4,18.38-.7,23.35-10.58c0,0,1.22-8.2-4.5-5.81Z"/>
  <path class="cls-8" d="M481.18,351.16c-6.53,1.72-12.62,4.26-19.14,5.98-11.91,3.14-23.74,5.28-35.97,1.1l-1.09-20.46c-.04-.22-.07-.44-.11-.65-2.36-15.6,7.86-30.06,22.69-33.05,14.81-2.99,29.78,6.36,33.66,21.6.32,1.24.55,2.49.71,3.77l5.65,18.99c-.74,2.09-4.98,2.23-6.4,2.73Z"/>
  <path class="cls-6" d="M433.89,353.81c.11-.76,1.14-4.57.71-5.09-.4-.48-2.12-2.61-3.6-5.7-1.77-3.72-3.19-8.84-1.48-14.16.11-.35,1.08-3.25,3.01-5.85,1.55-2.1,3.72-4,6.56-4.24,3.86-.32,6.88,2.61,7.96,3.66,1.34,1.31,2.39,2.83,3.13,4.55,1.59,3.65,1.45,7.17,1.4,8.08l3.98-.69c-.36-.84-1.67-4.11-1.4-8.08.12-1.87.6-3.65,1.42-5.34.66-1.35,2.52-5.13,6.27-6.12,2.76-.73,5.44.34,7.6,1.79,2.69,1.81,4.57,4.21,4.79,4.5,3.39,4.44,3.78,9.74,3.36,13.84-.13,1.27-.35,2.52-.64,3.76-.23.97-.29,1.96-.17,2.95.12.99.41,1.93.88,2.82l3.48,6.67c-6.52,1.72-12.6,4.25-19.11,5.97-9.64,2.54-19.22,4.42-29.01,2.83l.09-.65.77-5.51Z"/>
  <path class="cls-10" d="M445.82,336.72l.23.07,3.81,1.18c.33.19.67.36,1.03.49s.72.24,1.1.3c.38.07.75.11,1.14.11s.76-.03,1.14-.09.74-.16,1.1-.29c.36-.13.7-.29,1.03-.48.33-.19.64-.41.93-.66.29-.25.56-.52.8-.81l3.19-2.39.19-.14-15.7,2.71Z"/>
  <path class="cls-2" d="M445.82,336.72l.23.07c.71.08,1.81.22,3.16.44,3.8.61,3.86.92,4.9.76,1.17-.18,1.27-.6,5.17-2.74.85-.47,1.57-.85,2.04-1.09l.19-.14c-1.96.18-3.88-.02-5.77-.6-.9-.28-1.77-.64-2.61-1.09-.64.7-1.33,1.33-2.09,1.9-1.58,1.18-3.32,2.01-5.23,2.5Z"/>
  <g class="cls-11">
    <path class="cls-12" d="M424.28,337.74c.85.85,1.8,1.41,2.81,1.61l3-.52c.77-.44,1.47-1.1,2.05-1.94,1.55-2.19,2.38-5.56,2.05-9.16-.44-4.74-2.77-8.41-5.58-9.25,1.39-6.31,5.85-11.8,11.76-14.88,2.33-1.22,4.79-2.05,7.38-2.49,9.33-1.61,19.06,2.23,23.86,9.94-2.37,1.73-3.34,5.97-2.16,10.59.89,3.5,2.81,6.4,5,7.94.84.59,1.71.98,2.59,1.13l3-.52c.88-.53,1.6-1.38,2.11-2.46,1-2.13,1.22-5.15.4-8.36-1.3-5.1-4.78-8.92-8.11-9.14-1.1-1.73-2.4-3.29-3.89-4.69-2.08-1.95-4.42-3.51-7.03-4.68-5.04-2.28-10.69-2.96-16.17-2.01-2.82.48-5.51,1.38-8.06,2.69-3.65,1.88-6.86,4.55-9.31,7.84-2.06,2.77-3.55,5.92-4.31,9.28-3.06,1.32-5.06,6.08-4.57,11.33.31,3.29,1.52,6.07,3.18,7.74Z"/>
  </g>
  <path class="cls-10" d="M445.82,336.72c2.69.14,5.35-.02,8-.48s5.22-1.2,7.7-2.23c-1.96.18-3.88-.02-5.77-.6-.9-.28-1.77-.64-2.61-1.09-.64.7-1.33,1.33-2.09,1.9-1.58,1.18-3.32,2.01-5.23,2.5Z"/>
  <path class="cls-9" d="M437.95,332.77c.17-.17.35-.32.54-.46.19-.14.39-.27.61-.38.21-.11.43-.2.66-.28.23-.08.46-.13.69-.18s.47-.06.71-.07c.24,0,.47,0,.71.04.24.03.47.08.7.15.23.07.45.15.67.25.11.05.22.06.34.03s.21-.11.27-.21h0c.03-.07.05-.13.06-.19,0-.07,0-.13-.02-.2s-.05-.12-.1-.17c-.04-.05-.1-.09-.16-.12-.26-.12-.53-.22-.8-.31s-.55-.14-.84-.18-.57-.06-.86-.05c-.29,0-.57.03-.86.08s-.56.12-.83.21c-.27.09-.54.2-.79.34s-.5.28-.73.45-.45.36-.65.56c-.05.05-.08.1-.11.17-.02.06-.04.13-.03.19s.02.13.05.19c.03.06.07.11.12.15h0c.09.08.2.12.33.11s.23-.05.31-.14Z"/>
  <path class="cls-9" d="M462.77,328.48c.17-.17.35-.32.54-.46.19-.14.39-.27.61-.38.21-.11.43-.2.66-.28.23-.08.46-.13.69-.18s.47-.06.71-.07c.24,0,.47,0,.71.04.24.03.47.08.7.15.23.07.45.15.67.25.11.05.23.06.34.03s.21-.11.27-.21h0c.03-.07.05-.13.06-.19,0-.07,0-.13-.02-.2s-.05-.12-.1-.17c-.04-.05-.1-.09-.16-.12-.26-.12-.53-.22-.8-.31-.28-.08-.56-.14-.84-.18s-.57-.06-.86-.05c-.29,0-.57.03-.86.08s-.56.12-.83.21c-.27.09-.54.2-.79.34s-.5.28-.73.45-.45.36-.65.56c-.05.05-.08.1-.11.17-.02.06-.04.13-.03.19,0,.07.02.13.05.19.03.06.07.11.12.15h0c.1.08.2.12.33.11s.23-.05.31-.14Z"/>
  <path class="cls-8" d="M485.94,350.18s6.68-25.2,10.63-22.61c3.95,2.59,4.34,17.87-3.81,25.35,0,0-7.56,3.41-6.82-2.74Z"/>
  <path class="cls-8" d="M428.82,352.61s15.38,21.05,10.88,22.49-16.62-7.88-17.31-18.91c0,0,2.11-8.02,6.43-3.58Z"/>
  <path class="cls-8" d="M490.78,338.17s.56-.82,0-.59-3.2,10.86-3.2,10.86l-10.68-6.13s2.64,15.22,8.44,16.24c6.41,1.12,10.24-8.77,10.24-8.77"/>
</svg>