<svg xmlns="http://www.w3.org/2000/svg" xmlns:xlink="http://www.w3.org/1999/xlink" width="559" zoomAndPan="magnify" viewBox="0 0 419.25 297.75" height="397" preserveAspectRatio="xMidYMid meet" version="1.0"><defs><clipPath id="756d99cfa3"><path d="M 125 4.378906 L 302 4.378906 L 302 108 L 125 108 Z M 125 4.378906 " clip-rule="nonzero"/></clipPath></defs><path fill="#f7931e" d="M 312.535156 279.628906 C 312.246094 279.882812 311.089844 279.714844 309.464844 279.386719 C 305.054688 278.476562 297.183594 276.339844 293.8125 278.152344 C 291.433594 279.429688 292.875 281.828125 293.125 283.820312 C 293.25 284.847656 293.0625 285.757812 291.863281 286.367188 C 290.230469 287.183594 287.628906 286.957031 284.722656 286.445312 C 279.550781 285.527344 273.433594 283.683594 270.210938 285.160156 C 267.699219 286.316406 268.484375 288.789062 268.976562 290.550781 C 269.261719 291.566406 269.449219 292.347656 268.847656 292.492188 C 265.261719 293.363281 237.410156 271.152344 247.003906 264.898438 C 252.328125 261.429688 267.304688 264.082031 276.257812 265.667969 C 298.984375 269.691406 313.777344 278.527344 312.535156 279.628906 Z M 312.535156 279.628906 " fill-opacity="1" fill-rule="nonzero"/><path fill="#000000" d="M 309.464844 279.382812 C 305.054688 278.472656 297.183594 276.335938 293.8125 278.148438 C 291.433594 279.425781 292.875 281.824219 293.125 283.816406 C 292.859375 282.835938 292.542969 281.875 292.179688 280.929688 C 291.523438 279.226562 290.792969 277.285156 289.363281 275.304688 C 287.570312 272.824219 286.011719 272.117188 286.300781 271.667969 C 286.855469 270.816406 292.820312 272.894531 294.519531 273.484375 C 298.714844 274.941406 300.589844 276.058594 306.765625 278.378906 C 307.882812 278.804688 308.816406 279.144531 309.464844 279.382812 Z M 309.464844 279.382812 " fill-opacity="0.1" fill-rule="nonzero"/><path fill="#000000" d="M 284.726562 286.441406 C 279.554688 285.523438 273.433594 283.679688 270.214844 285.15625 C 267.703125 286.308594 268.488281 288.785156 268.980469 290.546875 C 261.070312 280.878906 260.363281 278.207031 261.164062 277.542969 C 262.101562 276.765625 265.214844 278.652344 273.25 282.019531 C 278.085938 284.042969 282.117188 285.519531 284.726562 286.441406 Z M 284.726562 286.441406 " fill-opacity="0.1" fill-rule="nonzero"/><path fill="#f7931e" d="M 115.492188 279.628906 C 115.78125 279.882812 116.9375 279.714844 118.5625 279.386719 C 122.972656 278.476562 130.84375 276.339844 134.210938 278.152344 C 136.589844 279.429688 135.148438 281.828125 134.902344 283.820312 C 134.773438 284.847656 134.964844 285.757812 136.164062 286.367188 C 137.796875 287.183594 140.398438 286.957031 143.304688 286.445312 C 148.476562 285.527344 154.59375 283.683594 157.816406 285.160156 C 160.328125 286.316406 159.542969 288.789062 159.046875 290.550781 C 158.765625 291.566406 158.578125 292.347656 159.179688 292.492188 C 162.761719 293.363281 190.617188 271.152344 181.023438 264.898438 C 175.699219 261.429688 160.722656 264.082031 151.769531 265.667969 C 129.035156 269.691406 114.246094 278.527344 115.492188 279.628906 Z M 115.492188 279.628906 " fill-opacity="1" fill-rule="nonzero"/><path fill="#000000" d="M 118.5625 279.382812 C 122.972656 278.472656 130.84375 276.335938 134.210938 278.148438 C 136.589844 279.425781 135.148438 281.824219 134.902344 283.816406 C 135.167969 282.835938 135.480469 281.875 135.84375 280.929688 C 136.5 279.226562 137.234375 277.285156 138.664062 275.304688 C 140.457031 272.824219 142.015625 272.117188 141.722656 271.667969 C 141.167969 270.816406 135.207031 272.894531 133.507812 273.484375 C 129.3125 274.941406 127.4375 276.058594 121.257812 278.378906 C 120.140625 278.804688 119.207031 279.144531 118.5625 279.382812 Z M 118.5625 279.382812 " fill-opacity="0.1" fill-rule="nonzero"/><path fill="#000000" d="M 143.296875 286.441406 C 148.472656 285.523438 154.589844 283.679688 157.808594 285.15625 C 160.320312 286.308594 159.539062 288.785156 159.042969 290.546875 C 166.957031 280.878906 167.664062 278.207031 166.863281 277.542969 C 165.925781 276.765625 162.808594 278.652344 154.777344 282.019531 C 149.9375 284.042969 145.90625 285.519531 143.296875 286.441406 Z M 143.296875 286.441406 " fill-opacity="0.1" fill-rule="nonzero"/><path fill="#305560" d="M 126.601562 219.769531 L 141.234375 95.921875 C 141.074219 92.691406 141.121094 89.460938 141.375 86.234375 C 144.460938 46.585938 177.664062 16.851562 215.742188 17.914062 C 253.875 18.980469 285.488281 50.613281 286.332031 90.488281 C 286.34375 91.046875 286.347656 91.605469 286.347656 92.160156 L 301.421875 219.769531 Z M 126.601562 219.769531 " fill-opacity="1" fill-rule="nonzero"/><path fill="#305560" d="M 253.773438 273.78125 C 253.585938 273.78125 253.398438 273.78125 253.210938 273.78125 C 253.074219 273.78125 252.933594 273.78125 252.796875 273.773438 L 252.523438 273.765625 L 252.484375 273.765625 L 252.132812 273.75 C 242.386719 273.378906 235.703125 268.757812 229.242188 264.289062 L 228.789062 263.976562 L 228.757812 263.957031 L 228.722656 263.933594 L 228.628906 263.878906 C 226.234375 262.355469 221.386719 262 217.847656 261.738281 L 217.675781 261.726562 C 215.390625 261.558594 213.503906 261.484375 211.734375 261.484375 C 206.554688 261.484375 202.539062 262.210938 199.816406 263.648438 C 198.59375 264.289062 197.332031 265.222656 195.992188 266.222656 C 194.128906 267.609375 192.007812 269.179688 189.433594 270.382812 C 184.707031 272.589844 179.527344 273.707031 174.039062 273.707031 C 168.519531 273.707031 162.9375 272.589844 157.457031 270.382812 C 152.25 268.285156 147.539062 265.378906 143.324219 261.660156 L 143.1875 261.539062 L 143.160156 261.511719 L 143.117188 261.472656 C 141.652344 260.085938 140.28125 258.613281 139.003906 257.054688 C 127.855469 243.488281 123.546875 224.054688 127.484375 205.074219 C 127.503906 204.988281 127.519531 204.90625 127.539062 204.824219 L 127.566406 204.691406 C 127.617188 204.460938 127.667969 204.234375 127.71875 204.015625 L 127.78125 203.75 L 152.066406 128.582031 C 152.59375 126.945312 152.8125 125.269531 152.730469 123.554688 C 152.644531 121.835938 152.257812 120.191406 151.574219 118.617188 C 150.191406 115.429688 149.023438 112.167969 148.074219 108.824219 C 146.261719 102.394531 145.398438 96.097656 145.535156 90.09375 C 145.710938 82.332031 147.542969 75.085938 150.980469 68.566406 C 151.421875 67.71875 155.53125 60.113281 162.238281 53.757812 C 168.898438 47.453125 175.992188 44.246094 183.320312 44.246094 C 184.03125 44.246094 184.753906 44.277344 185.464844 44.339844 C 198.171875 45.453125 205.859375 55.945312 208.390625 59.394531 C 210.777344 62.652344 212.652344 66.1875 214.007812 69.992188 C 215.367188 66.183594 217.238281 62.652344 219.628906 59.394531 C 222.160156 55.945312 229.859375 45.457031 242.550781 44.339844 C 243.261719 44.28125 243.984375 44.246094 244.695312 44.246094 C 252.023438 44.246094 259.117188 47.445312 265.777344 53.757812 C 272.488281 60.101562 276.601562 67.714844 277.042969 68.5625 C 280.484375 75.078125 282.316406 82.324219 282.488281 90.085938 C 282.625 96.089844 281.769531 102.390625 279.949219 108.816406 C 278.453125 114.085938 276.429688 119.140625 273.878906 123.980469 C 274.453125 125.75 275.640625 128.609375 276.152344 129.847656 C 276.785156 131.367188 277.121094 132.191406 277.347656 132.882812 L 290.515625 173.640625 C 291.050781 175.296875 291.609375 177.003906 292.152344 178.652344 C 296.375 191.519531 300.742188 204.824219 301.417969 218.261719 C 302.167969 233.289062 298.113281 245.976562 289.019531 257.050781 C 287.890625 258.421875 286.695312 259.730469 285.421875 260.96875 L 283.679688 262.515625 C 280.8125 264.8125 277.742188 266.792969 274.472656 268.460938 C 267.839844 271.855469 261.136719 273.648438 254.546875 273.78125 L 254.324219 273.78125 C 254.144531 273.78125 253.957031 273.78125 253.773438 273.78125 Z M 253.773438 273.78125 " fill-opacity="1" fill-rule="nonzero"/><path fill="#f2f2f2" d="M 294.878906 220.6875 C 295.472656 232.707031 292.867188 244.476562 283.941406 255.472656 C 282.835938 256.835938 281.652344 258.125 280.386719 259.339844 C 280.382812 259.34375 280.378906 259.34375 280.375 259.347656 C 278.136719 261.378906 267.519531 269.71875 254.398438 269.980469 L 254.265625 269.980469 C 254.105469 269.980469 253.941406 269.980469 253.773438 269.980469 C 253.621094 269.980469 253.464844 269.980469 253.316406 269.980469 C 253.207031 269.980469 253.097656 269.980469 252.992188 269.972656 L 252.757812 269.964844 L 252.421875 269.949219 C 244.363281 269.652344 238.800781 265.613281 232.492188 261.203125 C 232.445312 261.171875 232.394531 261.140625 232.347656 261.105469 C 232.296875 261.074219 232.226562 261.027344 232.167969 260.992188 C 228.324219 258.523438 222.636719 258.132812 218.160156 257.796875 C 211.351562 257.292969 202.949219 257.183594 196.746094 260.488281 C 193.160156 262.398438 190.332031 265.417969 186.644531 267.160156 C 173.796875 273.222656 157.933594 268.578125 147.699219 259.382812 C 147.683594 259.367188 147.664062 259.351562 147.644531 259.335938 C 146.378906 258.121094 145.195312 256.828125 144.089844 255.464844 C 133.5625 242.5 130.605469 224.4375 133.90625 208.324219 C 133.929688 208.21875 133.953125 208.113281 133.972656 208.007812 C 134.019531 207.800781 134.0625 207.597656 134.105469 207.402344 L 158.304688 131.589844 C 159.074219 129.179688 159.394531 126.714844 159.273438 124.1875 C 159.148438 121.660156 158.589844 119.238281 157.59375 116.914062 C 156.324219 113.953125 155.253906 110.917969 154.382812 107.816406 C 151.570312 97.773438 150.269531 84.40625 156.789062 71.886719 C 157.21875 71.0625 160.871094 64.261719 166.773438 58.605469 C 171.523438 54.050781 177.730469 50.234375 184.894531 50.867188 C 194.617188 51.730469 200.863281 60.34375 203.09375 63.421875 C 205.867188 67.269531 207.808594 71.5 208.914062 76.113281 C 211.3125 85.894531 209.445312 94.597656 208.914062 96.855469 L 219.105469 96.855469 C 218.578125 94.59375 216.714844 85.890625 219.105469 76.113281 C 220.214844 71.5 222.160156 67.273438 224.9375 63.429688 C 227.171875 60.347656 233.414062 51.738281 243.136719 50.875 C 250.296875 50.238281 256.507812 54.054688 261.257812 58.609375 C 267.160156 64.269531 270.816406 71.070312 271.242188 71.894531 C 277.765625 84.410156 276.460938 97.777344 273.648438 107.820312 C 271.320312 116.152344 267.953125 122.195312 267.164062 123.570312 C 266.316406 125.050781 270.523438 134.089844 271.113281 135.941406 L 275.390625 149.355469 L 284.28125 177.199219 C 288.828125 191.445312 294.164062 206.246094 294.878906 220.6875 Z M 294.878906 220.6875 " fill-opacity="1" fill-rule="nonzero"/><path fill="#f2f2f2" d="M 134.386719 235.226562 C 134.191406 234.402344 134.023438 233.632812 133.875 232.921875 C 133.070312 229.101562 132.652344 225.234375 132.617188 221.328125 C 132.65625 224.863281 133.015625 228.363281 133.691406 231.832031 C 133.878906 232.8125 134.101562 233.957031 134.386719 235.226562 Z M 134.386719 235.226562 " fill-opacity="1" fill-rule="nonzero"/><path fill="#f2f2f2" d="M 173.628906 269.980469 C 163.3125 269.828125 154.484375 265.875 147.695312 259.390625 C 150.03125 261.488281 160.597656 269.71875 173.628906 269.980469 Z M 173.628906 269.980469 " fill-opacity="1" fill-rule="nonzero"/><path fill="#f2f2f2" d="M 293.648438 235.191406 C 292.195312 241.671875 289.136719 251.390625 280.386719 259.339844 C 281.652344 258.125 282.835938 256.835938 283.941406 255.472656 C 290 248.011719 292.402344 240.453125 293.648438 235.191406 Z M 293.648438 235.191406 " fill-opacity="1" fill-rule="nonzero"/><path fill="#f7931e" d="M 234.105469 98.496094 L 233.5625 98.773438 L 224.597656 103.347656 C 223.867188 103.976562 223.085938 104.53125 222.253906 105.019531 C 221.425781 105.507812 220.558594 105.921875 219.65625 106.253906 C 218.75 106.589844 217.824219 106.839844 216.878906 107.011719 C 215.929688 107.179688 214.976562 107.265625 214.011719 107.265625 C 213.050781 107.265625 212.09375 107.179688 211.144531 107.011719 C 210.199219 106.839844 209.273438 106.589844 208.371094 106.253906 C 207.464844 105.921875 206.601562 105.507812 205.769531 105.019531 C 204.9375 104.53125 204.15625 103.976562 203.425781 103.347656 L 194.464844 98.773438 L 193.917969 98.496094 Z M 234.105469 98.496094 " fill-opacity="1" fill-rule="nonzero"/><path fill="#dc6d00" d="M 234.105469 98.496094 L 233.5625 98.773438 C 231.828125 99.285156 229.148438 100.105469 225.90625 101.222656 C 216.730469 104.378906 216.710938 105.175781 214.046875 105.226562 C 211.058594 105.285156 210.625 104.289062 200.011719 100.617188 C 197.683594 99.8125 195.757812 99.183594 194.464844 98.773438 L 193.917969 98.496094 C 198.871094 98.09375 203.5625 96.769531 207.996094 94.519531 C 210.125 93.433594 212.128906 92.15625 214.011719 90.683594 C 215.894531 92.15625 217.898438 93.433594 220.027344 94.519531 C 224.460938 96.769531 229.152344 98.09375 234.105469 98.496094 Z M 234.105469 98.496094 " fill-opacity="1" fill-rule="nonzero"/><path fill="#f7931e" d="M 234.105469 98.496094 C 227.492188 99.992188 220.792969 100.738281 214.011719 100.738281 C 207.230469 100.738281 200.535156 99.992188 193.917969 98.496094 C 198.871094 98.09375 203.5625 96.769531 207.996094 94.519531 C 210.125 93.433594 212.128906 92.15625 214.011719 90.683594 C 215.894531 92.15625 217.898438 93.433594 220.027344 94.519531 C 224.460938 96.769531 229.152344 98.09375 234.105469 98.496094 Z M 234.105469 98.496094 " fill-opacity="1" fill-rule="nonzero"/><path fill="#000000" d="M 214.011719 90.683594 L 214.011719 107.265625 C 212.070312 107.265625 210.191406 106.929688 208.371094 106.253906 C 206.550781 105.582031 204.902344 104.613281 203.425781 103.347656 L 194.464844 98.773438 L 193.917969 98.496094 C 198.871094 98.09375 203.5625 96.769531 207.996094 94.519531 C 210.125 93.433594 212.128906 92.15625 214.011719 90.683594 Z M 214.011719 90.683594 " fill-opacity="0.1" fill-rule="nonzero"/><path fill="#f2f2f2" d="M 133.601562 209.871094 C 133.003906 213.144531 132.679688 216.441406 132.621094 219.769531 C 132.671875 216.441406 133 213.140625 133.601562 209.871094 Z M 133.601562 209.871094 " fill-opacity="1" fill-rule="nonzero"/><path fill="#f2f2f2" d="M 147.640625 259.339844 C 138.949219 251.441406 135.867188 241.796875 134.40625 235.320312 C 135.660156 240.578125 138.078125 248.078125 144.085938 255.476562 C 145.191406 256.839844 146.375 258.125 147.640625 259.339844 Z M 147.640625 259.339844 " fill-opacity="1" fill-rule="nonzero"/><path fill="#f2f2f2" d="M 280.375 259.347656 C 273.582031 265.855469 264.738281 269.824219 254.398438 269.980469 C 267.519531 269.71875 278.136719 261.378906 280.375 259.347656 Z M 280.375 259.347656 " fill-opacity="1" fill-rule="nonzero"/><path fill="#305560" d="M 321.585938 205.324219 L 283.472656 174.515625 L 267.457031 124.882812 L 290.023438 124.882812 L 327.476562 200.585938 C 329.316406 204.308594 324.8125 207.933594 321.585938 205.324219 Z M 321.585938 205.324219 " fill-opacity="1" fill-rule="nonzero"/><path fill="#305560" d="M 95.472656 71.867188 C 89.132812 75.628906 116.601562 135.78125 119.429688 141.980469 C 126.925781 158.394531 133.933594 171.691406 139.03125 180.917969 L 152.339844 139.3125 C 110.960938 81.085938 98.585938 70.023438 95.472656 71.867188 Z M 95.472656 71.867188 " fill-opacity="1" fill-rule="nonzero"/><path fill="#1a1a1a" d="M 251.957031 85.269531 C 250.96875 84.570312 249.898438 84.039062 248.746094 83.671875 C 247.59375 83.304688 246.410156 83.125 245.203125 83.125 C 243.992188 83.125 242.8125 83.304688 241.660156 83.671875 C 240.507812 84.039062 239.4375 84.570312 238.449219 85.269531 C 238.195312 85.449219 237.914062 85.519531 237.609375 85.480469 C 237.300781 85.441406 237.046875 85.304688 236.84375 85.070312 L 236.828125 85.050781 C 236.71875 84.921875 236.640625 84.777344 236.59375 84.613281 C 236.542969 84.449219 236.53125 84.285156 236.554688 84.117188 C 236.574219 83.949219 236.628906 83.792969 236.71875 83.644531 C 236.804688 83.5 236.917969 83.378906 237.058594 83.285156 C 237.652344 82.863281 238.273438 82.496094 238.921875 82.171875 C 239.570312 81.851562 240.242188 81.578125 240.929688 81.359375 C 241.621094 81.140625 242.324219 80.976562 243.042969 80.863281 C 243.757812 80.753906 244.476562 80.699219 245.203125 80.699219 C 245.925781 80.699219 246.648438 80.753906 247.363281 80.863281 C 248.078125 80.976562 248.78125 81.140625 249.472656 81.359375 C 250.164062 81.578125 250.832031 81.851562 251.484375 82.171875 C 252.132812 82.496094 252.753906 82.863281 253.347656 83.285156 C 253.484375 83.378906 253.597656 83.5 253.6875 83.644531 C 253.773438 83.792969 253.828125 83.949219 253.851562 84.117188 C 253.871094 84.285156 253.859375 84.449219 253.8125 84.613281 C 253.765625 84.777344 253.683594 84.921875 253.574219 85.050781 L 253.558594 85.070312 C 253.359375 85.304688 253.105469 85.441406 252.796875 85.480469 C 252.488281 85.519531 252.210938 85.449219 251.957031 85.269531 Z M 251.957031 85.269531 " fill-opacity="1" fill-rule="nonzero"/><path fill="#1a1a1a" d="M 188.433594 85.269531 C 187.445312 84.570312 186.375 84.039062 185.222656 83.671875 C 184.070312 83.304688 182.890625 83.125 181.679688 83.125 C 180.472656 83.125 179.292969 83.304688 178.136719 83.671875 C 176.984375 84.039062 175.914062 84.570312 174.925781 85.269531 C 174.675781 85.449219 174.394531 85.519531 174.085938 85.480469 C 173.78125 85.441406 173.523438 85.304688 173.324219 85.070312 L 173.308594 85.050781 C 173.199219 84.921875 173.121094 84.777344 173.070312 84.613281 C 173.023438 84.449219 173.011719 84.285156 173.03125 84.117188 C 173.054688 83.949219 173.109375 83.792969 173.195312 83.644531 C 173.285156 83.5 173.398438 83.378906 173.539062 83.285156 C 174.128906 82.863281 174.75 82.496094 175.398438 82.171875 C 176.050781 81.851562 176.71875 81.578125 177.410156 81.359375 C 178.101562 81.140625 178.804688 80.976562 179.519531 80.863281 C 180.234375 80.753906 180.957031 80.699219 181.679688 80.699219 C 182.40625 80.699219 183.125 80.753906 183.84375 80.863281 C 184.558594 80.976562 185.261719 81.140625 185.953125 81.359375 C 186.644531 81.578125 187.3125 81.851562 187.960938 82.171875 C 188.609375 82.496094 189.230469 82.863281 189.824219 83.285156 C 189.964844 83.378906 190.078125 83.5 190.164062 83.644531 C 190.253906 83.792969 190.308594 83.949219 190.328125 84.117188 C 190.351562 84.285156 190.339844 84.449219 190.289062 84.613281 C 190.242188 84.777344 190.164062 84.921875 190.054688 85.050781 L 190.039062 85.070312 C 189.835938 85.304688 189.582031 85.441406 189.277344 85.480469 C 188.96875 85.519531 188.6875 85.449219 188.433594 85.269531 Z M 188.433594 85.269531 " fill-opacity="1" fill-rule="nonzero"/><path fill="#f03c46" d="M 149.621094 101.695312 C 148.289062 102.183594 146.914062 102.429688 145.492188 102.4375 C 144.109375 102.4375 142.769531 102.191406 141.476562 101.695312 Z M 149.621094 101.695312 " fill-opacity="1" fill-rule="nonzero"/><g clip-path="url(#756d99cfa3)"><path fill="#f03c46" d="M 296.136719 101.453125 C 294.203125 104.226562 291.8125 106.25 289.101562 107.289062 L 280.539062 107.289062 C 278.1875 106.4375 275.941406 104.929688 273.910156 102.890625 C 268.570312 97.546875 264.632812 88.566406 263.832031 78.390625 C 262.777344 64.992188 267.484375 53.667969 274.882812 49.980469 C 267.984375 33.109375 253 19.96875 235.113281 14.214844 C 228.0625 11.957031 220.839844 10.839844 213.441406 10.855469 C 186.789062 10.855469 161.628906 26.21875 151.988281 49.980469 C 159.394531 53.664062 164.105469 64.992188 163.050781 78.398438 C 162.25 88.570312 158.3125 97.546875 152.972656 102.898438 C 150.9375 104.9375 148.695312 106.449219 146.34375 107.296875 L 137.78125 107.296875 C 135.074219 106.257812 132.683594 104.234375 130.746094 101.460938 C 126.941406 96.023438 124.894531 87.714844 125.628906 78.402344 C 126.792969 63.578125 134.617188 51.292969 143.75 49.082031 C 145.972656 43.75 148.820312 38.777344 152.292969 34.167969 C 157.136719 27.742188 162.886719 22.273438 169.546875 17.765625 C 182.425781 8.992188 197.796875 4.394531 213.445312 4.394531 C 221.515625 4.378906 229.402344 5.578125 237.109375 7.992188 C 248.140625 11.449219 258.332031 17.351562 266.710938 25.324219 C 273.769531 32.03125 279.382812 40.089844 283.128906 49.070312 C 292.261719 51.277344 300.089844 63.566406 301.257812 78.394531 C 301.992188 87.703125 299.941406 96.007812 296.136719 101.453125 Z M 296.136719 101.453125 " fill-opacity="1" fill-rule="nonzero"/></g><path fill="#f03c46" d="M 285.40625 101.695312 C 284.113281 102.191406 282.777344 102.4375 281.390625 102.4375 C 279.972656 102.429688 278.59375 102.183594 277.261719 101.695312 Z M 285.40625 101.695312 " fill-opacity="1" fill-rule="nonzero"/></svg>