<svg xmlns="http://www.w3.org/2000/svg" xmlns:xlink="http://www.w3.org/1999/xlink" width="559" zoomAndPan="magnify" viewBox="0 0 419.25 297.75" height="397" preserveAspectRatio="xMidYMid meet" version="1.0"><defs><clipPath id="2f17c0039c"><path d="M 232 264 L 301 264 L 301 294.984375 L 232 294.984375 Z M 232 264 " clip-rule="nonzero"/></clipPath><clipPath id="296b70e5e8"><path d="M 100 264 L 170 264 L 170 294.984375 L 100 294.984375 Z M 100 264 " clip-rule="nonzero"/></clipPath><clipPath id="7016ce3b9d"><path d="M 120 2.257812 L 281 2.257812 L 281 96 L 120 96 Z M 120 2.257812 " clip-rule="nonzero"/></clipPath><clipPath id="5f8b42eba6"><path d="M 95.535156 108 L 134 108 L 134 228 L 95.535156 228 Z M 95.535156 108 " clip-rule="nonzero"/></clipPath></defs><g clip-path="url(#2f17c0039c)"><path fill="#f7931e" d="M 300.835938 281.054688 C 300.539062 281.3125 299.363281 281.144531 297.714844 280.808594 C 293.226562 279.886719 285.222656 277.71875 281.792969 279.554688 C 279.375 280.855469 280.839844 283.285156 281.09375 285.304688 C 281.222656 286.347656 281.027344 287.273438 279.808594 287.890625 C 278.152344 288.71875 275.503906 288.492188 272.550781 287.96875 C 267.285156 287.039062 261.0625 285.167969 257.789062 286.667969 C 255.234375 287.835938 256.03125 290.347656 256.535156 292.132812 C 256.820312 293.167969 257.015625 293.957031 256.398438 294.105469 C 252.757812 294.988281 224.425781 272.457031 234.183594 266.113281 C 239.597656 262.59375 254.832031 265.285156 263.9375 266.890625 C 287.058594 270.972656 302.101562 279.9375 300.835938 281.054688 Z M 300.835938 281.054688 " fill-opacity="1" fill-rule="nonzero"/></g><path fill="#000000" d="M 297.714844 280.804688 C 293.226562 279.882812 285.222656 277.714844 281.792969 279.550781 C 279.375 280.851562 280.839844 283.285156 281.09375 285.300781 C 280.824219 284.308594 280.503906 283.335938 280.132812 282.375 C 279.46875 280.644531 278.722656 278.675781 277.269531 276.667969 C 275.441406 274.152344 273.859375 273.433594 274.15625 272.976562 C 274.71875 272.117188 280.785156 274.222656 282.511719 274.824219 C 286.78125 276.300781 288.6875 277.433594 294.96875 279.789062 C 296.105469 280.21875 297.054688 280.5625 297.714844 280.804688 Z M 297.714844 280.804688 " fill-opacity="0.1" fill-rule="nonzero"/><path fill="#000000" d="M 272.554688 287.964844 C 267.292969 287.035156 261.070312 285.164062 257.796875 286.664062 C 255.242188 287.832031 256.035156 290.34375 256.539062 292.128906 C 248.492188 282.320312 247.773438 279.613281 248.589844 278.9375 C 249.542969 278.148438 252.710938 280.0625 260.878906 283.480469 C 265.800781 285.535156 269.898438 287.03125 272.554688 287.964844 Z M 272.554688 287.964844 " fill-opacity="0.1" fill-rule="nonzero"/><g clip-path="url(#296b70e5e8)"><path fill="#f7931e" d="M 100.429688 281.054688 C 100.726562 281.3125 101.898438 281.144531 103.550781 280.808594 C 108.039062 279.886719 116.042969 277.71875 119.46875 279.554688 C 121.890625 280.855469 120.425781 283.285156 120.171875 285.304688 C 120.042969 286.347656 120.234375 287.273438 121.457031 287.890625 C 123.113281 288.71875 125.761719 288.492188 128.714844 287.96875 C 133.976562 287.039062 140.199219 285.167969 143.476562 286.667969 C 146.03125 287.835938 145.234375 290.347656 144.730469 292.132812 C 144.441406 293.167969 144.25 293.957031 144.863281 294.105469 C 148.507812 294.988281 176.839844 272.457031 167.082031 266.113281 C 161.667969 262.59375 146.433594 265.285156 137.328125 266.890625 C 114.207031 270.972656 99.164062 279.9375 100.429688 281.054688 Z M 100.429688 281.054688 " fill-opacity="1" fill-rule="nonzero"/></g><path fill="#000000" d="M 103.550781 280.804688 C 108.039062 279.882812 116.042969 277.714844 119.46875 279.550781 C 121.890625 280.851562 120.425781 283.285156 120.171875 285.300781 C 120.441406 284.308594 120.761719 283.335938 121.128906 282.375 C 121.796875 280.644531 122.542969 278.675781 123.996094 276.667969 C 125.820312 274.152344 127.40625 273.433594 127.109375 272.976562 C 126.546875 272.117188 120.480469 274.222656 118.75 274.824219 C 114.484375 276.300781 112.578125 277.433594 106.296875 279.789062 C 105.160156 280.21875 104.210938 280.5625 103.550781 280.804688 Z M 103.550781 280.804688 " fill-opacity="0.1" fill-rule="nonzero"/><path fill="#000000" d="M 128.710938 287.964844 C 133.972656 287.035156 140.195312 285.164062 143.46875 286.664062 C 146.023438 287.832031 145.226562 290.34375 144.722656 292.128906 C 152.773438 282.320312 153.488281 279.613281 152.675781 278.9375 C 151.722656 278.148438 148.554688 280.0625 140.382812 283.480469 C 135.464844 285.535156 131.367188 287.03125 128.710938 287.964844 Z M 128.710938 287.964844 " fill-opacity="0.1" fill-rule="nonzero"/><path fill="#305560" d="M 111.730469 220.328125 L 126.609375 94.6875 C 126.449219 91.40625 126.496094 88.132812 126.753906 84.859375 C 129.890625 44.636719 163.664062 14.46875 202.390625 15.550781 C 241.179688 16.628906 273.328125 48.722656 274.1875 89.171875 C 274.195312 89.738281 274.203125 90.304688 274.203125 90.871094 L 289.535156 220.328125 Z M 111.730469 220.328125 " fill-opacity="1" fill-rule="nonzero"/><path fill="#305560" d="M 241.070312 275.121094 C 240.878906 275.121094 240.691406 275.121094 240.503906 275.121094 C 240.363281 275.121094 240.21875 275.121094 240.082031 275.113281 L 239.800781 275.105469 L 239.765625 275.105469 L 239.40625 275.089844 C 229.492188 274.714844 222.695312 270.027344 216.125 265.492188 L 215.664062 265.175781 L 215.628906 265.15625 L 215.59375 265.132812 L 215.503906 265.074219 C 213.066406 263.53125 208.136719 263.167969 204.535156 262.90625 L 204.359375 262.894531 C 202.035156 262.722656 200.117188 262.648438 198.320312 262.648438 C 193.050781 262.648438 188.964844 263.386719 186.195312 264.84375 C 184.953125 265.492188 183.671875 266.441406 182.308594 267.453125 C 180.410156 268.859375 178.257812 270.453125 175.636719 271.675781 C 170.828125 273.914062 165.5625 275.046875 159.980469 275.046875 C 154.363281 275.046875 148.6875 273.914062 143.117188 271.675781 C 137.820312 269.546875 133.027344 266.597656 128.742188 262.828125 L 128.601562 262.703125 L 128.570312 262.675781 L 128.519531 262.621094 C 127.03125 261.214844 125.636719 259.722656 124.335938 258.140625 C 112.996094 244.378906 108.617188 224.664062 112.621094 205.40625 C 112.640625 205.320312 112.65625 205.238281 112.675781 205.152344 L 112.707031 205.019531 C 112.757812 204.785156 112.808594 204.558594 112.859375 204.335938 L 112.921875 204.0625 L 137.625 127.8125 C 138.160156 126.152344 138.386719 124.453125 138.300781 122.710938 C 138.210938 120.96875 137.820312 119.300781 137.125 117.703125 C 135.71875 114.46875 134.53125 111.160156 133.566406 107.769531 C 131.71875 101.246094 130.84375 94.855469 130.980469 88.765625 C 131.160156 80.890625 133.027344 73.542969 136.519531 66.929688 C 136.972656 66.066406 141.148438 58.355469 147.96875 51.90625 C 154.746094 45.507812 161.960938 42.253906 169.414062 42.253906 C 170.136719 42.253906 170.871094 42.285156 171.59375 42.351562 C 184.515625 43.480469 192.339844 54.125 194.910156 57.621094 C 197.34375 60.925781 199.25 64.511719 200.632812 68.371094 C 202.011719 64.507812 203.917969 60.925781 206.347656 57.617188 C 208.921875 54.121094 216.753906 43.480469 229.660156 42.347656 C 230.386719 42.285156 231.121094 42.253906 231.84375 42.253906 C 239.296875 42.253906 246.511719 45.5 253.285156 51.902344 C 260.109375 58.355469 264.285156 66.070312 264.738281 66.929688 C 268.238281 73.542969 270.101562 80.890625 270.277344 88.765625 C 270.414062 94.855469 269.546875 101.25 267.691406 107.769531 C 266.171875 113.113281 264.113281 118.238281 261.519531 123.152344 C 262.101562 124.949219 263.3125 127.847656 263.835938 129.105469 C 264.476562 130.644531 264.820312 131.480469 265.046875 132.179688 L 278.441406 173.527344 C 278.984375 175.210938 279.554688 176.941406 280.105469 178.613281 C 284.402344 191.667969 288.84375 205.167969 289.527344 218.796875 C 290.292969 234.042969 286.167969 246.914062 276.921875 258.148438 C 275.773438 259.539062 274.554688 260.867188 273.261719 262.125 L 271.488281 263.691406 C 268.570312 266.019531 265.449219 268.03125 262.125 269.722656 C 255.378906 273.167969 248.5625 274.984375 241.859375 275.121094 L 241.632812 275.121094 C 241.449219 275.121094 241.261719 275.121094 241.070312 275.121094 Z M 241.070312 275.121094 " fill-opacity="1" fill-rule="nonzero"/><path fill="#f2f2f2" d="M 282.878906 221.257812 C 283.484375 233.453125 280.832031 245.394531 271.753906 256.546875 C 270.632812 257.929688 269.425781 259.238281 268.136719 260.472656 C 268.136719 260.476562 268.132812 260.476562 268.128906 260.476562 C 265.851562 262.539062 255.050781 271 241.707031 271.265625 L 241.574219 271.265625 C 241.410156 271.265625 241.242188 271.265625 241.070312 271.265625 C 240.914062 271.265625 240.757812 271.265625 240.605469 271.265625 C 240.496094 271.265625 240.386719 271.265625 240.277344 271.257812 L 240.039062 271.25 L 239.695312 271.234375 C 231.5 270.933594 225.84375 266.835938 219.429688 262.363281 C 219.378906 262.328125 219.328125 262.296875 219.277344 262.265625 C 219.226562 262.230469 219.15625 262.183594 219.097656 262.148438 C 215.1875 259.640625 209.40625 259.242188 204.847656 258.90625 C 197.921875 258.390625 189.378906 258.28125 183.066406 261.632812 C 179.421875 263.570312 176.546875 266.636719 172.792969 268.402344 C 159.726562 274.554688 143.589844 269.84375 133.183594 260.515625 C 133.167969 260.496094 133.148438 260.480469 133.128906 260.464844 C 131.839844 259.234375 130.632812 257.929688 129.503906 256.546875 C 118.796875 243.394531 115.792969 225.066406 119.148438 208.722656 C 119.171875 208.613281 119.195312 208.507812 119.21875 208.402344 C 119.261719 208.191406 119.308594 207.988281 119.355469 207.785156 L 143.964844 130.875 C 144.746094 128.433594 145.074219 125.929688 144.949219 123.367188 C 144.824219 120.804688 144.253906 118.34375 143.242188 115.988281 C 141.949219 112.980469 140.863281 109.90625 139.972656 106.757812 C 137.113281 96.570312 135.789062 83.007812 142.421875 70.308594 C 142.859375 69.472656 146.574219 62.574219 152.574219 56.832031 C 157.410156 52.210938 163.722656 48.34375 171.007812 48.984375 C 180.898438 49.863281 187.25 58.597656 189.519531 61.722656 C 192.34375 65.621094 194.320312 69.910156 195.449219 74.59375 C 197.886719 84.511719 195.988281 93.34375 195.449219 95.632812 L 205.816406 95.632812 C 205.277344 93.339844 203.382812 84.507812 205.816406 74.59375 C 206.941406 69.914062 208.914062 65.621094 211.738281 61.722656 C 214.007812 58.601562 220.359375 49.863281 230.25 48.988281 C 237.53125 48.339844 243.847656 52.214844 248.679688 56.835938 C 254.679688 62.578125 258.398438 69.476562 258.832031 70.3125 C 265.46875 83.011719 264.140625 96.570312 261.28125 106.757812 C 258.910156 115.210938 255.488281 121.34375 254.683594 122.738281 C 253.824219 124.238281 258.101562 133.410156 258.703125 135.289062 L 263.054688 148.890625 L 272.097656 177.136719 C 276.722656 191.59375 282.152344 206.609375 282.878906 221.257812 Z M 282.878906 221.257812 " fill-opacity="1" fill-rule="nonzero"/><path fill="#f2f2f2" d="M 119.648438 236.011719 C 119.449219 235.171875 119.277344 234.390625 119.125 233.671875 C 118.308594 229.792969 117.878906 225.871094 117.84375 221.902344 C 117.882812 225.488281 118.25 229.039062 118.933594 232.558594 C 119.132812 233.5625 119.355469 234.722656 119.648438 236.011719 Z M 119.648438 236.011719 " fill-opacity="1" fill-rule="nonzero"/><path fill="#f2f2f2" d="M 159.558594 271.265625 C 149.070312 271.113281 140.085938 267.101562 133.183594 260.523438 C 135.558594 262.652344 146.304688 271.003906 159.558594 271.265625 Z M 159.558594 271.265625 " fill-opacity="1" fill-rule="nonzero"/><path fill="#f2f2f2" d="M 281.628906 235.972656 C 280.148438 242.546875 277.039062 252.410156 268.136719 260.472656 C 269.425781 259.238281 270.632812 257.929688 271.753906 256.546875 C 277.914062 248.980469 280.359375 241.3125 281.628906 235.972656 Z M 281.628906 235.972656 " fill-opacity="1" fill-rule="nonzero"/><path fill="#f7931e" d="M 221.070312 97.296875 L 220.515625 97.578125 L 211.398438 102.222656 C 210.65625 102.855469 209.859375 103.421875 209.015625 103.917969 C 208.171875 104.414062 207.289062 104.832031 206.371094 105.167969 C 205.453125 105.507812 204.511719 105.765625 203.546875 105.9375 C 202.582031 106.109375 201.609375 106.195312 200.632812 106.195312 C 199.652344 106.195312 198.679688 106.109375 197.714844 105.9375 C 196.753906 105.765625 195.8125 105.507812 194.890625 105.167969 C 193.972656 104.832031 193.09375 104.414062 192.246094 103.917969 C 191.402344 103.421875 190.609375 102.855469 189.863281 102.222656 L 180.75 97.578125 L 180.195312 97.296875 Z M 221.070312 97.296875 " fill-opacity="1" fill-rule="nonzero"/><path fill="#dc6d00" d="M 221.070312 97.296875 L 220.515625 97.578125 C 218.75 98.097656 216.027344 98.933594 212.726562 100.066406 C 203.394531 103.265625 203.375 104.074219 200.667969 104.125 C 197.628906 104.183594 197.1875 103.175781 186.390625 99.449219 C 184.027344 98.632812 182.0625 97.996094 180.75 97.578125 L 180.195312 97.296875 C 185.230469 96.890625 190.003906 95.546875 194.515625 93.265625 C 196.679688 92.164062 198.71875 90.867188 200.632812 89.375 C 202.546875 90.867188 204.585938 92.164062 206.75 93.265625 C 211.257812 95.546875 216.03125 96.890625 221.070312 97.296875 Z M 221.070312 97.296875 " fill-opacity="1" fill-rule="nonzero"/><path fill="#f7931e" d="M 221.070312 97.296875 C 214.339844 98.8125 207.527344 99.574219 200.632812 99.574219 C 193.734375 99.574219 186.921875 98.8125 180.195312 97.296875 C 185.230469 96.890625 190.003906 95.546875 194.515625 93.265625 C 196.679688 92.164062 198.71875 90.867188 200.632812 89.375 C 202.546875 90.867188 204.585938 92.164062 206.75 93.265625 C 211.257812 95.546875 216.03125 96.890625 221.070312 97.296875 Z M 221.070312 97.296875 " fill-opacity="1" fill-rule="nonzero"/><path fill="#000000" d="M 200.632812 89.371094 L 200.632812 106.195312 C 198.660156 106.195312 196.746094 105.851562 194.894531 105.167969 C 193.042969 104.484375 191.367188 103.503906 189.863281 102.21875 L 180.75 97.578125 L 180.195312 97.296875 C 185.230469 96.890625 190.003906 95.546875 194.515625 93.265625 C 196.679688 92.164062 198.71875 90.867188 200.632812 89.371094 Z M 200.632812 89.371094 " fill-opacity="0.1" fill-rule="nonzero"/><path fill="#f2f2f2" d="M 118.847656 210.285156 C 118.242188 213.605469 117.910156 216.953125 117.851562 220.328125 C 117.902344 216.953125 118.234375 213.605469 118.847656 210.285156 Z M 118.847656 210.285156 " fill-opacity="1" fill-rule="nonzero"/><path fill="#f2f2f2" d="M 133.128906 260.472656 C 124.285156 252.457031 121.15625 242.671875 119.667969 236.105469 C 120.945312 241.4375 123.402344 249.046875 129.511719 256.554688 C 130.636719 257.933594 131.84375 259.242188 133.128906 260.472656 Z M 133.128906 260.472656 " fill-opacity="1" fill-rule="nonzero"/><path fill="#f2f2f2" d="M 268.128906 260.476562 C 261.21875 267.082031 252.222656 271.109375 241.707031 271.265625 C 255.050781 271 265.851562 262.539062 268.128906 260.476562 Z M 268.128906 260.476562 " fill-opacity="1" fill-rule="nonzero"/><path fill="#1a1a1a" d="M 239.226562 83.878906 C 238.726562 83.527344 238.203125 83.214844 237.652344 82.945312 C 237.105469 82.671875 236.539062 82.445312 235.957031 82.257812 C 235.375 82.074219 234.78125 81.9375 234.179688 81.84375 C 233.574219 81.75 232.964844 81.703125 232.355469 81.703125 C 231.742188 81.703125 231.136719 81.75 230.53125 81.84375 C 229.929688 81.9375 229.335938 82.074219 228.75 82.257812 C 228.167969 82.445312 227.605469 82.671875 227.054688 82.945312 C 226.507812 83.214844 225.984375 83.527344 225.484375 83.878906 C 225.226562 84.0625 224.945312 84.132812 224.632812 84.09375 C 224.320312 84.054688 224.058594 83.917969 223.855469 83.675781 L 223.839844 83.660156 C 223.726562 83.527344 223.648438 83.378906 223.597656 83.214844 C 223.550781 83.050781 223.535156 82.882812 223.558594 82.710938 C 223.582031 82.539062 223.636719 82.378906 223.726562 82.234375 C 223.816406 82.085938 223.929688 81.964844 224.074219 81.863281 C 224.675781 81.441406 225.308594 81.066406 225.96875 80.738281 C 226.628906 80.410156 227.308594 80.136719 228.011719 79.914062 C 228.714844 79.691406 229.429688 79.523438 230.15625 79.410156 C 230.886719 79.296875 231.617188 79.242188 232.355469 79.242188 C 233.09375 79.242188 233.824219 79.296875 234.554688 79.410156 C 235.28125 79.523438 235.996094 79.691406 236.699219 79.914062 C 237.402344 80.136719 238.082031 80.410156 238.742188 80.738281 C 239.402344 81.066406 240.035156 81.441406 240.636719 81.863281 C 240.777344 81.964844 240.894531 82.085938 240.984375 82.234375 C 241.074219 82.378906 241.128906 82.539062 241.152344 82.710938 C 241.175781 82.882812 241.160156 83.050781 241.113281 83.214844 C 241.0625 83.378906 240.984375 83.527344 240.871094 83.660156 L 240.855469 83.675781 C 240.652344 83.917969 240.390625 84.054688 240.078125 84.09375 C 239.765625 84.132812 239.480469 84.0625 239.226562 83.878906 Z M 239.226562 83.878906 " fill-opacity="1" fill-rule="nonzero"/><path fill="#1a1a1a" d="M 174.621094 83.878906 C 174.121094 83.527344 173.597656 83.214844 173.046875 82.945312 C 172.5 82.671875 171.933594 82.445312 171.351562 82.257812 C 170.769531 82.074219 170.175781 81.9375 169.574219 81.84375 C 168.96875 81.75 168.359375 81.703125 167.75 81.703125 C 167.136719 81.703125 166.53125 81.75 165.925781 81.84375 C 165.324219 81.9375 164.730469 82.074219 164.144531 82.257812 C 163.5625 82.445312 163 82.671875 162.449219 82.945312 C 161.902344 83.214844 161.378906 83.527344 160.878906 83.878906 C 160.621094 84.0625 160.335938 84.132812 160.023438 84.09375 C 159.710938 84.054688 159.453125 83.917969 159.25 83.675781 L 159.234375 83.660156 C 159.121094 83.527344 159.042969 83.378906 158.992188 83.214844 C 158.945312 83.050781 158.929688 82.882812 158.953125 82.710938 C 158.976562 82.539062 159.03125 82.378906 159.121094 82.234375 C 159.210938 82.085938 159.324219 81.964844 159.46875 81.863281 C 160.070312 81.441406 160.699219 81.066406 161.359375 80.738281 C 162.023438 80.410156 162.703125 80.136719 163.40625 79.914062 C 164.109375 79.691406 164.824219 79.523438 165.550781 79.410156 C 166.28125 79.296875 167.011719 79.242188 167.75 79.242188 C 168.484375 79.242188 169.21875 79.296875 169.945312 79.410156 C 170.675781 79.523438 171.390625 79.691406 172.09375 79.914062 C 172.796875 80.136719 173.476562 80.410156 174.136719 80.738281 C 174.796875 81.066406 175.429688 81.441406 176.03125 81.863281 C 176.171875 81.964844 176.289062 82.085938 176.378906 82.234375 C 176.46875 82.378906 176.523438 82.539062 176.546875 82.710938 C 176.566406 82.882812 176.554688 83.050781 176.507812 83.214844 C 176.457031 83.378906 176.378906 83.527344 176.265625 83.660156 L 176.25 83.675781 C 176.042969 83.917969 175.785156 84.054688 175.472656 84.09375 C 175.160156 84.132812 174.875 84.0625 174.621094 83.878906 Z M 174.621094 83.878906 " fill-opacity="1" fill-rule="nonzero"/><g clip-path="url(#7016ce3b9d)"><path fill="#f03c46" d="M 275.953125 90.457031 C 274.1875 92.976562 272.015625 94.816406 269.542969 95.757812 L 261.746094 95.757812 C 259.605469 94.988281 257.5625 93.617188 255.707031 91.761719 C 250.84375 86.90625 247.257812 78.75 246.53125 69.507812 C 245.570312 57.339844 249.851562 47.050781 256.59375 43.699219 C 250.316406 28.371094 236.664062 16.4375 220.371094 11.214844 C 213.953125 9.160156 207.371094 8.136719 200.632812 8.148438 C 176.355469 8.148438 153.441406 22.105469 144.660156 43.695312 C 151.40625 47.039062 155.699219 57.328125 154.738281 69.507812 C 154.007812 78.75 150.421875 86.90625 145.558594 91.761719 C 143.703125 93.613281 141.660156 94.988281 139.519531 95.757812 L 131.71875 95.757812 C 129.253906 94.816406 127.074219 92.972656 125.3125 90.457031 C 121.847656 85.515625 119.984375 77.964844 120.652344 69.507812 C 121.710938 56.039062 128.839844 44.878906 137.15625 42.871094 C 139.179688 38.027344 141.773438 33.511719 144.9375 29.320312 C 149.347656 23.484375 154.585938 18.515625 160.652344 14.417969 C 172.382812 6.445312 186.382812 2.269531 200.632812 2.269531 C 207.984375 2.257812 215.167969 3.347656 222.1875 5.535156 C 232.234375 8.679688 241.515625 14.042969 249.148438 21.289062 C 255.574219 27.386719 260.695312 34.699219 264.101562 42.867188 C 272.421875 44.871094 279.550781 56.035156 280.613281 69.503906 C 281.28125 77.964844 279.414062 85.515625 275.953125 90.457031 Z M 275.953125 90.457031 " fill-opacity="1" fill-rule="nonzero"/></g><g clip-path="url(#5f8b42eba6)"><path fill="#305560" d="M 107.589844 227.429688 C 104.804688 227.882812 96.269531 208.601562 95.753906 186.308594 C 95.628906 181.082031 95.59375 160.03125 108.09375 136.976562 C 114.097656 125.929688 121.851562 116.292969 131.351562 108.058594 L 133.46875 147.558594 C 127.515625 154.515625 122.660156 162.171875 118.90625 170.527344 C 114.648438 180.027344 112.933594 187.953125 111.734375 193.683594 C 107.292969 214.960938 109.746094 227.082031 107.589844 227.429688 Z M 107.589844 227.429688 " fill-opacity="1" fill-rule="nonzero"/></g><path fill="#305560" d="M 314.953125 80.242188 C 318.230469 80.183594 322.597656 96.964844 322.867188 113.882812 C 323.027344 123.777344 323.078125 145.660156 308.820312 167.890625 C 300.125 181.445312 289.457031 189.917969 281.9375 194.804688 L 271.035156 146.261719 C 283.382812 140.007812 290.519531 132.296875 294.363281 127.289062 C 299.519531 120.578125 302.328125 114.085938 305.0625 107.652344 C 312.429688 90.308594 312.421875 80.285156 314.953125 80.242188 Z M 314.953125 80.242188 " fill-opacity="1" fill-rule="nonzero"/><path fill="#f9b169" d="M 290.449219 134.976562 C 290.449219 134.976562 290.785156 139.6875 286.28125 141.292969 C 285.121094 141.703125 283.957031 142.105469 282.792969 142.503906 C 281.367188 142.988281 279.941406 143.457031 278.511719 143.914062 C 277.988281 144.078125 277.464844 144.242188 276.945312 144.40625 C 276.292969 144.613281 275.640625 144.8125 274.992188 145.011719 C 271.949219 145.9375 268.902344 146.804688 265.84375 147.613281 C 264.722656 147.910156 263.597656 148.199219 262.476562 148.476562 C 259.605469 149.195312 256.730469 149.859375 253.847656 150.476562 C 252.78125 150.707031 251.714844 150.925781 250.648438 151.136719 C 247.898438 151.6875 245.144531 152.195312 242.386719 152.652344 C 241.375 152.820312 240.363281 152.984375 239.351562 153.144531 C 236.878906 153.523438 234.40625 153.867188 231.933594 154.175781 L 231.496094 154.226562 C 230.527344 154.347656 229.5625 154.460938 228.59375 154.566406 C 226.082031 154.84375 223.570312 155.082031 221.050781 155.285156 C 220.121094 155.359375 219.1875 155.429688 218.257812 155.496094 C 215.816406 155.664062 213.375 155.796875 210.929688 155.894531 C 210.019531 155.933594 209.105469 155.964844 208.195312 155.988281 C 205.789062 156.0625 203.382812 156.097656 200.976562 156.101562 C 200.070312 156.101562 199.164062 156.097656 198.257812 156.089844 C 195.847656 156.066406 193.441406 156.007812 191.03125 155.917969 C 190.117188 155.882812 189.203125 155.839844 188.289062 155.792969 C 185.835938 155.675781 183.386719 155.519531 180.9375 155.328125 C 180.003906 155.253906 179.066406 155.175781 178.132812 155.09375 C 175.605469 154.867188 173.078125 154.605469 170.550781 154.304688 C 169.578125 154.1875 168.605469 154.066406 167.636719 153.933594 C 165 153.589844 162.363281 153.203125 159.734375 152.773438 C 158.714844 152.609375 157.695312 152.4375 156.679688 152.257812 C 153.902344 151.769531 151.132812 151.238281 148.371094 150.65625 C 147.296875 150.433594 146.222656 150.199219 145.148438 149.960938 C 142.25 149.3125 139.355469 148.617188 136.472656 147.871094 C 135.347656 147.578125 134.21875 147.277344 133.09375 146.964844 C 130.023438 146.125 126.960938 145.21875 123.914062 144.257812 C 122.734375 143.890625 121.558594 143.507812 120.382812 143.117188 C 118.59375 142.527344 116.8125 141.914062 115.035156 141.28125 C 110.621094 139.710938 110.867188 134.96875 110.867188 134.96875 C 109.816406 130.417969 112.992188 128.238281 116.0625 122.535156 C 116.851562 121.066406 117.535156 119.546875 118.105469 117.980469 C 120.78125 110.675781 119.695312 106.445312 122.800781 103.152344 C 123.128906 102.804688 123.484375 102.484375 123.859375 102.195312 C 124.75 101.496094 125.699219 100.902344 126.707031 100.402344 C 128.183594 99.691406 129.527344 99.386719 130.335938 99.679688 C 130.921875 99.894531 131.511719 100.105469 132.097656 100.3125 C 132.972656 100.621094 133.847656 100.925781 134.726562 101.222656 C 137.132812 102.039062 139.550781 102.808594 141.976562 103.527344 C 142.925781 103.8125 143.875 104.085938 144.824219 104.355469 C 147.402344 105.085938 149.984375 105.761719 152.578125 106.382812 C 153.574219 106.625 154.570312 106.859375 155.570312 107.082031 C 158.25 107.6875 160.9375 108.234375 163.632812 108.730469 C 164.660156 108.917969 165.691406 109.097656 166.71875 109.273438 C 169.464844 109.734375 172.21875 110.136719 174.976562 110.488281 C 176.019531 110.617188 177.066406 110.742188 178.113281 110.855469 C 180.894531 111.164062 183.679688 111.414062 186.46875 111.609375 C 187.523438 111.683594 188.578125 111.746094 189.632812 111.804688 C 192.433594 111.957031 195.234375 112.046875 198.035156 112.085938 C 199.089844 112.101562 200.148438 112.105469 201.207031 112.101562 C 204.007812 112.09375 206.808594 112.03125 209.609375 111.90625 C 210.664062 111.863281 211.71875 111.808594 212.777344 111.746094 C 215.566406 111.582031 218.355469 111.359375 221.144531 111.078125 C 222.195312 110.972656 223.242188 110.859375 224.289062 110.738281 C 224.761719 110.683594 225.234375 110.625 225.707031 110.566406 C 227.992188 110.285156 230.277344 109.964844 232.558594 109.605469 C 233.589844 109.441406 234.621094 109.269531 235.652344 109.09375 C 238.359375 108.625 241.058594 108.101562 243.75 107.523438 C 244.753906 107.308594 245.753906 107.085938 246.757812 106.851562 C 249.367188 106.25 251.96875 105.59375 254.5625 104.882812 C 255.519531 104.625 256.476562 104.355469 257.429688 104.078125 C 259.882812 103.375 262.324219 102.625 264.761719 101.824219 C 265.648438 101.53125 266.539062 101.234375 267.425781 100.929688 C 267.824219 100.792969 268.21875 100.65625 268.613281 100.519531 C 269.40625 100.242188 270.195312 99.960938 270.984375 99.671875 C 271.015625 99.664062 271.042969 99.648438 271.074219 99.644531 C 271.773438 99.429688 272.796875 99.59375 273.929688 100.046875 C 274.417969 100.242188 274.890625 100.472656 275.351562 100.734375 C 276.09375 101.15625 276.796875 101.640625 277.457031 102.183594 C 281.898438 105.851562 279.453125 110.527344 282.34375 118.457031 C 282.601562 119.164062 282.878906 119.828125 283.167969 120.453125 C 286.507812 127.746094 291.496094 129.699219 290.449219 134.976562 Z M 290.449219 134.976562 " fill-opacity="1" fill-rule="nonzero"/><path fill="#f7931e" d="M 123.914062 144.269531 C 122.734375 143.898438 121.558594 143.515625 120.382812 143.128906 C 117.574219 136.550781 116.136719 129.691406 116.0625 122.542969 C 116.851562 121.074219 117.53125 119.554688 118.101562 117.988281 C 120.777344 110.683594 119.695312 106.453125 122.800781 103.160156 C 120.402344 108.957031 119.199219 115.632812 119.265625 122.34375 C 119.304688 129.984375 120.976562 137.660156 123.914062 144.269531 Z M 123.914062 144.269531 " fill-opacity="1" fill-rule="nonzero"/><path fill="#f7931e" d="M 136.472656 147.878906 C 135.34375 147.585938 134.21875 147.285156 133.09375 146.976562 C 130.140625 140.636719 128.269531 133.089844 127.863281 125.40625 C 127.355469 116.5625 128.792969 107.542969 132.097656 100.324219 C 132.972656 100.636719 133.847656 100.9375 134.726562 101.234375 C 131.71875 108.582031 130.503906 117.65625 131.128906 126.476562 C 131.640625 134.160156 133.542969 141.644531 136.472656 147.878906 Z M 136.472656 147.878906 " fill-opacity="1" fill-rule="nonzero"/><path fill="#f7931e" d="M 148.371094 150.671875 C 147.296875 150.445312 146.222656 150.210938 145.148438 149.972656 C 139.21875 137.207031 137.585938 117.914062 141.976562 103.542969 C 142.925781 103.824219 143.875 104.101562 144.824219 104.371094 C 140.871094 118.929688 142.617188 138.136719 148.371094 150.671875 Z M 148.371094 150.671875 " fill-opacity="1" fill-rule="nonzero"/><path fill="#f7931e" d="M 159.734375 152.785156 C 158.714844 152.621094 157.695312 152.449219 156.679688 152.269531 C 151.527344 140.324219 149.628906 121.363281 152.578125 106.398438 C 153.574219 106.636719 154.570312 106.871094 155.570312 107.09375 C 152.945312 122.183594 154.847656 141.042969 159.734375 152.785156 Z M 159.734375 152.785156 " fill-opacity="1" fill-rule="nonzero"/><path fill="#f7931e" d="M 170.554688 154.308594 C 169.582031 154.195312 168.609375 154.070312 167.636719 153.941406 C 163.53125 142.679688 161.753906 124.085938 163.636719 108.738281 C 164.664062 108.925781 165.691406 109.109375 166.722656 109.28125 C 165.078125 124.707031 166.769531 143.203125 170.554688 154.308594 Z M 170.554688 154.308594 " fill-opacity="1" fill-rule="nonzero"/><path fill="#f7931e" d="M 180.941406 155.332031 C 180.007812 155.261719 179.070312 155.183594 178.136719 155.097656 C 175.246094 144.355469 173.871094 126.078125 174.976562 110.5 C 176.023438 110.632812 177.070312 110.753906 178.117188 110.867188 C 177.179688 126.492188 178.40625 144.695312 180.941406 155.332031 Z M 180.941406 155.332031 " fill-opacity="1" fill-rule="nonzero"/><path fill="#f7931e" d="M 191.035156 155.917969 C 190.121094 155.882812 189.203125 155.84375 188.289062 155.792969 C 186.726562 145.378906 185.941406 127.324219 186.472656 111.617188 C 187.523438 111.691406 188.578125 111.757812 189.632812 111.8125 C 189.242188 127.542969 189.84375 145.558594 191.035156 155.917969 Z M 191.035156 155.917969 " fill-opacity="1" fill-rule="nonzero"/><path fill="#f7931e" d="M 200.976562 156.101562 C 200.070312 156.101562 199.164062 156.097656 198.257812 156.089844 C 198.070312 145.8125 197.976562 127.851562 198.035156 112.101562 C 199.089844 112.117188 200.148438 112.121094 201.207031 112.117188 C 201.265625 127.875 201.171875 145.832031 200.976562 156.101562 Z M 200.976562 156.101562 " fill-opacity="1" fill-rule="nonzero"/><path fill="#f7931e" d="M 210.933594 155.894531 C 210.019531 155.933594 209.109375 155.964844 208.195312 155.992188 C 209.394531 145.65625 210 127.664062 209.609375 111.921875 C 210.664062 111.878906 211.71875 111.824219 212.777344 111.761719 C 213.300781 127.488281 212.507812 145.519531 210.933594 155.894531 Z M 210.933594 155.894531 " fill-opacity="1" fill-rule="nonzero"/><path fill="#f7931e" d="M 221.054688 155.285156 C 220.121094 155.359375 219.191406 155.429688 218.257812 155.496094 C 220.808594 144.921875 222.058594 126.753906 221.140625 111.09375 C 222.191406 110.988281 223.238281 110.875 224.285156 110.753906 C 225.367188 126.375 223.964844 144.609375 221.054688 155.285156 Z M 221.054688 155.285156 " fill-opacity="1" fill-rule="nonzero"/><path fill="#f7931e" d="M 231.496094 154.226562 C 230.53125 154.347656 229.5625 154.460938 228.597656 154.566406 C 232.410156 143.5625 234.15625 125.109375 232.554688 109.621094 C 233.585938 109.457031 234.617188 109.289062 235.648438 109.109375 C 237.480469 124.53125 235.640625 143.078125 231.496094 154.226562 Z M 231.496094 154.226562 " fill-opacity="1" fill-rule="nonzero"/><path fill="#f7931e" d="M 242.386719 152.65625 C 241.375 152.828125 240.363281 152.992188 239.351562 153.148438 C 244.300781 141.535156 246.292969 122.726562 243.746094 107.542969 C 244.75 107.328125 245.75 107.105469 246.753906 106.875 C 249.609375 121.933594 247.609375 140.847656 242.386719 152.65625 Z M 242.386719 152.65625 " fill-opacity="1" fill-rule="nonzero"/><path fill="#f7931e" d="M 253.847656 150.484375 C 252.78125 150.710938 251.714844 150.933594 250.648438 151.144531 C 256.5 138.765625 258.386719 119.59375 254.554688 104.90625 C 255.511719 104.648438 256.46875 104.378906 257.425781 104.101562 C 261.679688 118.613281 259.894531 137.875 253.847656 150.484375 Z M 253.847656 150.484375 " fill-opacity="1" fill-rule="nonzero"/><path fill="#f7931e" d="M 271.335938 126.109375 C 270.84375 133.808594 268.882812 141.335938 265.84375 147.613281 C 264.722656 147.914062 263.597656 148.199219 262.476562 148.476562 C 265.480469 142.308594 267.464844 134.851562 268.058594 127.15625 C 268.777344 118.371094 267.664062 109.273438 264.757812 101.839844 C 265.644531 101.550781 266.535156 101.25 267.421875 100.945312 C 270.613281 108.25 271.941406 117.292969 271.335938 126.109375 Z M 271.335938 126.109375 " fill-opacity="1" fill-rule="nonzero"/><path fill="#f7931e" d="M 283.179688 121.890625 C 283.210938 129.539062 281.523438 137.253906 278.503906 143.914062 C 277.984375 144.078125 277.460938 144.242188 276.941406 144.40625 C 276.289062 144.613281 275.636719 144.8125 274.984375 145.011719 C 278.03125 138.449219 279.820312 130.777344 279.957031 123.101562 C 280.144531 115.1875 278.570312 107.269531 275.34375 100.753906 C 276.089844 101.175781 276.789062 101.660156 277.449219 102.207031 C 281.894531 105.871094 279.445312 110.546875 282.335938 118.476562 C 282.59375 119.1875 282.871094 119.851562 283.160156 120.476562 C 283.175781 120.945312 283.183594 121.417969 283.179688 121.890625 Z M 283.179688 121.890625 " fill-opacity="1" fill-rule="nonzero"/></svg>