<svg xmlns="http://www.w3.org/2000/svg" xmlns:xlink="http://www.w3.org/1999/xlink" width="559" zoomAndPan="magnify" viewBox="0 0 419.25 297.75" height="397" preserveAspectRatio="xMidYMid meet" version="1.0"><defs><filter x="0%" y="0%" width="100%" height="100%" id="91471412a3"><feColorMatrix values="0 0 0 0 1 0 0 0 0 1 0 0 0 0 1 0 0 0 1 0" color-interpolation-filters="sRGB"/></filter><clipPath id="c2c09430df"><path d="M 154 0.140625 L 266 0.140625 L 266 155 L 154 155 Z M 154 0.140625 " clip-rule="nonzero"/></clipPath><mask id="ee63c5b35a"><g filter="url(#91471412a3)"><rect x="-41.925" width="503.1" fill="#000000" y="-29.775" height="357.3" fill-opacity="0.07"/></g></mask><clipPath id="f7bda8a9ad"><path d="M 0.441406 0 L 146 0 L 146 167 L 0.441406 167 Z M 0.441406 0 " clip-rule="nonzero"/></clipPath><clipPath id="bf7b72db0c"><rect x="0" width="147" y="0" height="168"/></clipPath><clipPath id="ee9d864c46"><path d="M 131.863281 121 L 288.332031 121 L 288.332031 297.359375 L 131.863281 297.359375 Z M 131.863281 121 " clip-rule="nonzero"/></clipPath><clipPath id="9a6a6a86a1"><path d="M 158 0.140625 L 217 0.140625 L 217 79 L 158 79 Z M 158 0.140625 " clip-rule="nonzero"/></clipPath><mask id="50808f40d7"><g filter="url(#91471412a3)"><rect x="-41.925" width="503.1" fill="#000000" y="-29.775" height="357.3" fill-opacity="0.07"/></g></mask><clipPath id="4b0a055cdc"><path d="M 1 0.140625 L 58 0.140625 L 58 78 L 1 78 Z M 1 0.140625 " clip-rule="nonzero"/></clipPath><clipPath id="73e1e53e78"><rect x="0" width="59" y="0" height="79"/></clipPath><mask id="71111d980f"><g filter="url(#91471412a3)"><rect x="-41.925" width="503.1" fill="#000000" y="-29.775" height="357.3" fill-opacity="0.07"/></g></mask><clipPath id="588ad55fcf"><path d="M 1 0.0429688 L 29 0.0429688 L 29 52 L 1 52 Z M 1 0.0429688 " clip-rule="nonzero"/></clipPath><clipPath id="c078cc55ee"><rect x="0" width="30" y="0" height="53"/></clipPath><clipPath id="bd9ca41227"><path d="M 8.132812 158.601562 L 410.914062 158.601562 L 410.914062 258.921875 L 8.132812 258.921875 Z M 8.132812 158.601562 " clip-rule="nonzero"/></clipPath></defs><g clip-path="url(#c2c09430df)"><path fill="#f9f9f9" d="M 265.414062 99.625 C 265.332031 130.257812 240.410156 155.007812 209.777344 154.921875 C 179.140625 154.835938 154.394531 129.917969 154.476562 99.28125 C 154.5625 81.445312 163.523438 63.78125 178.542969 53.882812 C 181.53125 51.921875 184.773438 50.214844 187.160156 47.566406 C 191.171875 42.960938 191.769531 36.21875 191.597656 30.074219 C 191.429688 23.929688 190.660156 17.53125 192.878906 11.8125 C 195.269531 5.15625 201.839844 0.121094 208.921875 -0.390625 C 216.003906 -0.988281 223.257812 3.023438 226.585938 9.335938 C 230.597656 17.019531 228.722656 26.0625 228.804688 34.339844 C 228.890625 38.351562 229.0625 42.703125 231.453125 45.945312 C 234.011719 49.53125 237.765625 51.75 241.351562 54.140625 C 256.371094 64.292969 265.5 81.363281 265.414062 99.625 Z M 265.414062 99.625 " fill-opacity="1" fill-rule="nonzero"/></g><path fill="#ffffff" d="M 246.214844 294.445312 L 173.679688 294.445312 C 152.515625 294.445312 135.277344 277.125 135.277344 256.046875 L 135.277344 158.761719 C 135.277344 139.988281 150.636719 124.628906 169.410156 124.628906 L 250.480469 124.628906 C 269.253906 124.628906 284.617188 139.988281 284.617188 158.761719 L 284.617188 256.046875 C 284.617188 277.125 267.378906 294.445312 246.214844 294.445312 Z M 246.214844 294.445312 " fill-opacity="1" fill-rule="nonzero"/><g mask="url(#ee63c5b35a)"><g transform="matrix(1, 0, 0, 1, 133, 124)"><g clip-path="url(#bf7b72db0c)"><g clip-path="url(#f7bda8a9ad)"><path fill="#1b1d1e" d="M 17.636719 147.40625 L 17.636719 50.121094 C 17.636719 31.347656 33 11.722656 51.773438 11.722656 L 132.84375 11.722656 C 137.449219 11.722656 141.800781 16.925781 145.8125 18.546875 C 140.011719 7.878906 128.746094 0.628906 115.773438 0.628906 L 34.707031 0.628906 C 15.929688 0.628906 0.570312 15.988281 0.570312 34.761719 L 0.570312 132.046875 C 0.570312 147.492188 9.785156 160.890625 23.015625 166.949219 C 19.601562 161.144531 17.636719 154.488281 17.636719 147.40625 Z M 17.636719 147.40625 " fill-opacity="1" fill-rule="nonzero"/></g></g></g></g><g clip-path="url(#ee9d864c46)"><path fill="#6cb6e5" d="M 246.214844 297.859375 L 173.679688 297.859375 C 150.636719 297.859375 131.863281 279.085938 131.863281 256.046875 L 131.863281 158.761719 C 131.863281 138.023438 148.675781 121.214844 169.410156 121.214844 L 250.480469 121.214844 C 271.21875 121.214844 288.03125 138.023438 288.03125 158.761719 L 288.03125 256.046875 C 288.03125 279.085938 269.253906 297.859375 246.214844 297.859375 Z M 169.410156 128.039062 C 152.429688 128.039062 138.691406 141.78125 138.691406 158.761719 L 138.691406 256.046875 C 138.691406 275.332031 154.394531 291.035156 173.679688 291.035156 L 246.214844 291.035156 C 265.5 291.035156 281.203125 275.332031 281.203125 256.046875 L 281.203125 158.761719 C 281.203125 141.78125 267.464844 128.039062 250.480469 128.039062 Z M 169.410156 128.039062 " fill-opacity="1" fill-rule="nonzero"/></g><path fill="#ffbd59" d="M 265.414062 77.691406 L 154.476562 77.691406 C 145.089844 77.691406 137.410156 85.371094 137.410156 94.757812 L 137.410156 111.828125 C 137.410156 121.214844 145.089844 128.894531 154.476562 128.894531 L 265.414062 128.894531 C 274.800781 128.894531 282.484375 121.214844 282.484375 111.828125 L 282.484375 94.757812 C 282.484375 85.371094 274.800781 77.691406 265.414062 77.691406 Z M 265.414062 77.691406 " fill-opacity="1" fill-rule="nonzero"/><g clip-path="url(#9a6a6a86a1)"><g mask="url(#50808f40d7)"><g transform="matrix(1, 0, 0, 1, 158, 0.000000000000001971)"><g clip-path="url(#73e1e53e78)"><g clip-path="url(#4b0a055cdc)"><path fill="#1b1d1e" d="M 11.242188 77.691406 C 15.335938 68.132812 22.078125 59.6875 30.867188 53.882812 C 33.855469 51.921875 37.097656 50.214844 39.488281 47.566406 C 43.5 42.960938 44.097656 36.21875 43.925781 30.074219 C 43.753906 23.929688 42.988281 17.53125 45.207031 11.8125 C 47.253906 6.351562 52.03125 2 57.578125 0.292969 C 55.445312 -0.304688 53.226562 -0.5625 51.09375 -0.390625 C 44.011719 0.207031 37.441406 5.15625 34.964844 11.8125 C 32.832031 17.53125 33.515625 23.929688 33.683594 30.074219 C 33.855469 36.21875 33.34375 42.875 29.246094 47.566406 C 26.941406 50.214844 23.613281 51.921875 20.628906 53.882812 C 11.839844 59.6875 5.097656 68.132812 1 77.691406 Z M 11.242188 77.691406 " fill-opacity="1" fill-rule="nonzero"/></g></g></g></g></g><g mask="url(#71111d980f)"><g transform="matrix(1, 0, 0, 1, 136, 77)"><g clip-path="url(#c078cc55ee)"><g clip-path="url(#588ad55fcf)"><path fill="#1b1d1e" d="M 11.652344 34.828125 L 11.652344 17.757812 C 11.652344 8.371094 19.332031 0.691406 28.71875 0.691406 L 18.476562 0.691406 C 9.089844 0.691406 1.410156 8.371094 1.410156 17.757812 L 1.410156 34.828125 C 1.410156 44.214844 9.089844 51.894531 18.476562 51.894531 L 28.71875 51.894531 C 19.332031 51.894531 11.652344 44.214844 11.652344 34.828125 Z M 11.652344 34.828125 " fill-opacity="1" fill-rule="nonzero"/></g></g></g></g><g clip-path="url(#bd9ca41227)"><path fill="#ffbd59" d="M 380.898438 163.222656 C 359.867188 163.222656 356.238281 174.828125 356.238281 174.828125 C 356.238281 174.828125 388.878906 171.925781 388.878906 188.605469 C 388.878906 202.75 373.285156 205.648438 368.933594 205.648438 C 346.449219 205.648438 317.078125 158.875 264.140625 158.875 C 239.609375 158.875 221.625 167.59375 209.382812 176.953125 C 197.140625 167.59375 179.160156 158.875 154.628906 158.875 C 101.6875 158.875 72.316406 205.648438 49.835938 205.648438 C 45.484375 205.648438 29.890625 202.75 29.890625 188.605469 C 29.890625 171.925781 62.527344 174.828125 62.527344 174.828125 C 62.527344 174.828125 58.902344 163.222656 37.867188 163.222656 C 16.835938 163.222656 8.132812 187.882812 8.132812 203.113281 C 8.132812 218.34375 19.738281 258.953125 98.0625 258.953125 C 155.425781 258.953125 187.492188 237.949219 209.382812 218.726562 C 231.277344 237.949219 263.34375 258.953125 320.707031 258.953125 C 399.03125 258.953125 410.632812 218.34375 410.632812 203.113281 C 410.632812 187.882812 401.929688 163.222656 380.898438 163.222656 Z M 380.898438 163.222656 " fill-opacity="1" fill-rule="nonzero"/></g></svg>